**ABCDEFGHIJKLMNOPQRSTUVWXYZabcdefghijklmnopqrstuvwxyz**************************
**PARASOLID !"#$%&'()*+,-./:;<=>?@[\]^_`{|}~0123456789**************************
**PART1;
MC=x64/Windows NT;
MC_MODEL=genuineintel family 6 model 5 stepping 7, intel(r) xeon(r) gold 6246r cpu @ 3.40ghz;
MC_ID=desktop-ti3nin1;
OS=windows nt (x64);
OS_RELEASE=6.3 windows 10 pro (build 19042) ;
FRU=mdc_ugii_v7.0_djl_can_vrh;
APPL=unigraphics;
SITE=unknown;
USER=huanglei;
FORMAT=text;
GUISE=transmit;
KEY=rotor;
FILE=E:\HL\608lunpan\paper_example\rotor.x_t;
DATE=13-aug-2021;
**PART2;
SCH=SCH_3000198_30000;
USFLD_SIZE=0;
**PART3;
**END_OF_HEADER*****************************************************************
T51 : TRANSMIT FILE created by modeller version 300019823 SCH_3000198_30000_1300
6205 0 10 19 CCCCCCCI4 mesh1006 0 I8 polyline1008 0 CCCCCCCCCCZ1 6 0 0 0 0 0 0 0
 0 0 1e3 1e-8 0 0 0 1 0 1 2 11 255 2 5 0 1 3 4 1 5 0 0 0 12 33 CCCCCCI4 mesh1006
 0 I8 polyline1008 0 CCCCCCCDI5 owner1040 0 CCCCCCI13 boundary_mesh1006 0 I17 bo
undary_polyline1008 0 CCCA16 index_map_offset0 0 1 dA9 index_map82 0 A17 node_id
_index_map82 0 A20 schema_embedding_map82 0 A5 child12 0 A14 lowest_node_id0 0 1
 dZ3 373 6 7 0 0 0 0 0 0 1e3 1e-8 2 8 0 1 0 3 1 9 10 11 12 0 0 13 14 15 0 0 0 0
 0 0 100 255 4 6 2 0 0 1 0 0 0 1 0 0 0 1 0 0 0 1 0 ?11 5 3 0 1 8 16 1 17 2 0 0 1
2 8 257 18 19 0 0 0 0 0 0 1e3 1e-8 5 20 3 1 0 3 1 21 22 23 24 0 0 25 26 27 0 0 0
 0 0 0 100 16 4 5 0 0 1 0 0 0 1 0 0 0 1 0 .011 0 1 1 ?11 17 1 0 1 20 28 1 0 5 0
 0 12 20 64 29 30 0 0 0 0 0 0 1e3 1e-8 17 31 8 1 0 3 1 32 33 34 35 0 0 36 37 38
 0 0 0 0 0 0 100 28 2 17 0 0 1 0 0 0 1 0 0 0 1 .0011 .0511 0 1 1 ?81 255 1 29 64
 39 20 40 0 0 0 41 70 11 CI9 list_type0 0 1 uI10 notransmit0 0 1 lCCCDCCDI12 fin
ger_index0 0 1 dI12 finger_block1012 0 CZ30 0 4 T20 0 0 5 20 1 42 42 13 255 32 3
 0 20 0 43 0 0 36 43 50 255 33 35 0 43 0 0 0 +0 0 0 0 0 1 1 0 0 30 255 34 32 0 3
7 44 0 0 +.0466 .0116 0 -.707106781186549 -.707106781186546 0 29 255 35 27 0 38
 45 0 .0466 .0116 0 19 8 CCCCCCCA5 owner12 0 Z36 1 0 20 0 0 32 V0 16 255 37 30 4
6 ?47 0 48 34 0 0 20 18 255 38 25 0 49 0 50 35 ?20 17 255 49 0 0 0 0 38 47 37 0
 51 -18 50 20 0 52 38 53 45 ?20 17 52 0 0 0 0 50 51 48 0 54 -18 53 15 0 55 50 56
 57 ?20 29 45 22 0 50 57 35 .0466 .014 0 29 57 17 0 53 58 45 .0497 .014 0 29 58
 12 0 56 59 57 .0497 446797076583923e-33 0 18 56 10 0 60 53 61 58 ?20 29 59 7 0
 61 62 58 .045 0 0 18 61 5 0 63 56 64 59 ?20 29 62 4 0 64 0 59 .045 .01 0 18 64
 2 0 47 61 0 62 ?20 17 47 0 65 66 51 64 49 37 0 67 +15 255 65 33 0 66 43 0 17 66
 0 65 68 47 61 67 69 0 0 +17 51 0 65 47 54 38 52 48 0 0 +17 67 0 0 0 0 64 66 69
 0 0 -16 69 6 70 ?66 71 0 72 0 0 20 81 1 70 51 73 69 0 0 0 74 75 16 71 11 76 ?68
 77 69 78 0 0 20 30 72 9 0 69 0 78 0 +.045 .01 0 0 -1 0 30 78 14 0 71 72 79 0 +.
045 -4349486188021685e-34 0 1 1876054671034235e-31 0 30 79 19 0 77 78 80 0 +.049
7 0 0 0 1 0 16 77 16 74 ?81 82 71 79 0 0 20 30 80 24 0 82 79 44 0 +.0497 .014 0
 -1 0 0 16 82 21 83 ?54 48 77 80 0 0 20 30 44 29 0 48 80 34 0 +.0466 .014 0 0 -1
 0 16 48 26 84 ?51 37 82 44 0 0 20 81 1 84 53 73 48 0 0 74 83 85 80 255 1 73 86
 87 9000 1 1 1 1 1 1 1 1 0 FFFFTFTFFFFFFF3 81 1 74 52 73 77 0 0 70 84 88 81 1 83
 54 73 82 0 0 84 46 89 84 255 32 85 91edb889f59e68d3524633aeb2b92e7181 1 46 55 7
3 37 0 0 83 76 90 84 32 89 4f7a66ae4db9b98075e209791b276c1c81 1 76 56 73 71 0 0
 46 91 92 84 32 90 88857dcfad071a0f23eed21bcb4dd07d81 1 91 57 73 43 0 93 76 0 94
 84 32 92 2158cc2b533b4d90730459447dfa4ba614 255 43 34 95 ?0 0 65 32 33 +0 0 0 0
 32 81 1 93 62 96 43 91 95 0 0 97 84 32 94 077d3d407f72bfb31f3a289fa6aa31a380 1
 96 98 99 8015 0 0 0 0 3 5 0 0 0 FFFFTFFFFFFFFF2 81 1 95 63 100 43 93 0 0 0 101
 83 255 1 97 0 80 1 100 0 102 8001 0 0 0 0 3 5 0 0 0 FFFFTFTFFFFFFF2 83 3 101 1
 .9803922 .7490196 79 255 15 102 SDL/TYSA_COLOUR79 21 99 SDL/TYSA_TRANSLUCENCY84
 32 88 ef838727f91bcbc09579ff464d9cb54079 15 87 UGS/ObjectState17 54 0 65 51 81
 50 55 82 0 0 +17 81 0 65 54 68 53 60 77 0 0 +17 55 0 0 0 0 53 54 82 0 81 -17 68
 0 65 81 66 56 63 71 0 0 +17 60 0 0 0 0 56 81 77 0 68 -17 63 0 0 0 0 61 68 71 0
 66 -84 32 75 656bad00251984c3c9436f066b3e11f374 4 CI16 index_map_offset0 0 1 dC
CZ20 42 5 0 0 91 40 93 95 29 0 0 0 0 0 0 0 0 0 0 0 0 0 0 0 81 2 40 58 103 20 0 2
9 0 0 104 105 80 2 103 106 107 8004 0 0 0 0 3 5 0 0 0 FFTFFFFFFFFFFT2 3 83 1 104
 7830.64 84 8 105 Kg/Cu M 79 16 107 SDL/TYSA_DENSITY80 1 39 108 109 9000 0 0 0 0
 3 5 0 0 0 FFTFFFFFFFFFFF1 82 255 1 41 2 79 24 109 UG2/BODY_COLOR_ATTRIBUTE81 1
 18 257 39 8 110 0 0 0 111 70 19 0 4 T8 0 0 8 20 1 112 112 13 21 3 0 8 0 113 0 0
 25 113 50 22 170 0 113 0 0 0 +.0628 .01640989831222745 0 0 0 1 1 0 0 30 23 167
 0 26 114 0 0 +.05185 .0401 0 -1 0 0 29 24 162 0 27 115 0 .05185 .0401 0 19 25 1
 0 8 0 0 21 V0 16 26 165 116 ?117 0 118 23 0 0 8 18 27 160 0 119 0 120 24 ?8 17
 119 0 0 0 0 27 117 26 0 121 -18 120 155 0 122 27 123 115 ?8 17 122 0 0 0 0 120
 121 118 0 124 -18 123 150 0 125 120 126 127 ?8 29 115 157 0 120 127 24 .05185 .
0492 0 29 127 152 0 123 128 115 .0533 .0492 0 29 128 147 0 126 129 127 .0533 .04
01 0 18 126 145 0 130 123 131 128 ?8 29 129 142 0 131 132 128 .0552 .0401 0 18 1
31 140 0 133 126 134 129 ?8 29 132 137 0 134 135 129 .0552 .0363 0 18 134 135 0
 136 131 137 132 ?8 29 135 132 0 137 138 132 .0525372995465521 .0363 0 18 137 13
0 0 139 134 140 135 ?8 29 138 127 0 140 141 135 .0525372995465521 .0350411809548
975 0 18 140 125 0 142 137 143 138 ?8 29 141 122 0 143 144 138 .0580299858267226
 .01454219668726498 0 18 143 120 0 145 140 146 141 ?8 29 144 117 0 146 147 141 .
0709509462720438 .00350665393327865 0 18 146 115 0 148 143 149 144 ?8 29 147 112
 0 149 150 144 .0786160618109024 .002701017826343865 0 18 149 110 0 151 146 152
 147 ?8 29 150 107 0 152 153 147 .0813773829690715 .002701017826343865 0 18 152
 105 0 154 149 155 150 ?8 29 153 102 0 155 156 150 .0813773829690715 .0083 0 18
 155 100 0 157 152 158 153 ?8 29 156 97 0 158 159 153 .083 .0083 0 18 158 95 0 1
60 155 161 156 ?8 29 159 92 0 161 162 156 .083 .0019 0 18 161 90 0 163 158 164 1
59 ?8 29 162 87 0 164 165 159 .095 .0019 0 18 164 85 0 166 161 167 162 ?8 29 165
 82 0 167 168 162 .095 .0049 0 18 167 80 0 169 164 170 165 ?8 29 168 77 0 170 17
1 165 .096 .0049 0 18 170 75 0 172 167 173 168 ?8 29 171 72 0 173 174 168 .096 .
00150000000000003 0 18 173 70 0 175 170 176 171 ?8 29 174 67 0 176 177 171 .0992
 .00150000000000003 0 18 176 65 0 178 173 179 174 ?8 29 177 62 0 179 180 174 .09
92 .000500000000000031 0 18 179 60 0 181 176 182 177 ?8 29 180 57 0 182 183 177
 .095 .000500000000000031 0 18 182 55 0 184 179 185 180 ?8 29 183 52 0 185 186 1
80 .095 .00099999999999991 0 18 185 50 0 187 182 188 183 ?8 29 186 47 0 188 189
 183 .08594 .001 0 18 188 45 0 190 185 191 186 ?8 29 189 42 0 191 192 186 .08594
 -3e-4 0 18 191 40 0 193 188 194 189 ?8 29 192 37 0 194 195 189 .08474 -3e-4 0 1
8 194 35 0 196 191 197 192 ?8 29 195 32 0 197 198 192 .08319140077946 .000909898
312227395 0 18 197 30 0 199 194 200 195 ?8 29 198 27 0 200 201 195 .0628 .000909
898312227472 0 18 200 25 0 202 197 203 198 ?8 29 201 22 0 203 204 198 .0473 .016
40989831222745 0 18 203 20 0 205 200 206 201 ?8 29 204 12 0 206 207 201 .0473 .0
362 0 18 206 10 0 208 203 209 204 ?8 29 207 7 0 209 210 204 .0461 .0362 0 18 209
 5 0 211 206 212 207 ?8 29 210 4 0 212 0 207 .0461 .0401 0 18 212 2 0 117 209 0
 210 ?8 17 117 0 213 214 121 212 119 26 0 215 +15 213 168 0 214 113 0 17 214 0 2
13 216 117 209 215 217 0 0 +17 121 0 213 117 124 27 122 118 0 0 +17 215 0 0 0 0
 212 214 217 0 0 -16 217 6 218 ?214 219 0 220 0 0 8 81 1 218 230 73 217 0 0 221
 222 223 16 219 11 224 ?216 225 217 226 0 0 8 30 220 9 0 217 0 226 0 +.0461 .040
1 0 0 -1 0 30 226 14 0 219 220 227 0 +.0461 .0362 0 1 0 0 30 227 19 0 225 226 22
8 0 +.0473 .0362 0 0 -1 0 16 225 16 229 ?205 230 219 227 0 0 8 31 255 228 29 0 2
30 227 231 0 +.0628 .01640989831222745 0 0 0 1 -183697019872103e-30 -1 0 .0155 1
6 230 26 232 ?233 234 225 228 0 0 8 30 231 34 0 234 228 235 0 +.0628 .0009098983
12227472 0 1 -3732504369447135e-30 0 16 234 31 236 ?237 238 230 231 0 0 8 30 235
 39 0 238 231 239 0 +.08319140077946 .000909898312227395 0 .788010753606723 -.61
5661475325657 0 16 238 36 222 ?240 241 234 235 0 0 8 30 239 44 0 241 235 242 0 +
.08474 -3e-4 0 1 903501810404582e-31 0 16 241 41 243 ?244 245 238 239 0 0 8 30 2
42 49 0 245 239 246 0 +.08594 -3e-4 0 106752213906265e-28 1 0 16 245 46 247 ?248
 249 241 242 0 0 8 30 246 54 0 249 242 250 0 +.08594 .001 0 1 -99564702815446e-2
8 0 16 249 51 251 ?252 253 245 246 0 0 8 30 250 59 0 253 246 254 0 +.095 .000999
999999999901 0 0 -1 0 16 253 56 255 ?256 257 249 250 0 0 8 30 254 64 0 257 250 2
58 0 +.095 .000500000000000031 0 1 154886024640786e-30 0 16 257 61 259 ?260 261
 253 254 0 0 8 30 258 69 0 261 254 262 0 +.0992 .000500000000000031 0 0 1 0 16 2
61 66 263 ?264 265 257 258 0 0 8 30 262 74 0 265 258 266 0 +.0992 .0015000000000
0003 0 -1 -2710505431213755e-31 0 16 265 71 267 ?268 269 261 262 0 0 8 30 266 79
 0 269 262 270 0 +.096 .00150000000000003 0 0 1 0 16 269 76 271 ?272 273 265 266
 0 0 8 30 270 84 0 273 266 274 0 +.096 .0049 0 -1 -867361737988403e-30 0 16 273
 81 275 ?276 277 269 270 0 0 8 30 274 89 0 277 270 278 0 +.095 .0049 0 0 -1 0 16
 277 86 279 ?280 281 273 274 0 0 8 30 278 94 0 281 274 282 0 +.095 .0019 0 -1 -1
084202172485504e-31 0 16 281 91 283 ?284 285 277 278 0 0 8 30 282 99 0 285 278 2
86 0 +.083 .0019 0 0 1 0 16 285 96 221 ?287 288 281 282 0 0 8 30 286 104 0 288 2
82 289 0 +.083 .0083 0 -1 0 0 16 288 101 290 ?291 292 285 286 0 0 8 30 289 109 0
 292 286 293 0 +.0813773829690715 .0083 0 -495725379270221e-29 -1 0 16 292 106 2
94 ?295 296 288 289 0 0 8 30 293 114 0 296 289 297 0 +.0813773829690715 .0027010
17826343865 0 -1 0 0 16 296 111 298 ?299 300 292 293 0 0 8 30 297 119 0 300 293
 301 0 +.0786160618109024 .002701017826343865 0 -.994521895368273 .1045284632676
53 0 16 300 116 302 ?303 304 296 297 0 0 8 31 301 124 0 304 297 305 0 +.07251887
32210586 .01842448236380275 0 0 0 -1 183697019872103e-30 -1 0 .015 16 304 121 30
6 ?307 308 300 301 0 0 8 30 305 129 0 308 301 309 0 +.0580299858267226 .01454219
668726494 0 -.2588190451025205 .965925826289068 0 16 308 126 310 ?311 312 304 30
5 0 0 8 30 309 134 0 312 305 313 0 +.0525372995465521 .0350411809548975 0 0 1 0
 16 312 131 314 ?315 316 308 309 0 0 8 30 313 139 0 316 309 317 0 +.052537299546
5521 .0363 0 1 0 0 16 316 136 318 ?319 320 312 313 0 0 8 30 317 144 0 320 313 32
1 0 +.0552 .0363 0 0 1 0 16 320 141 322 ?323 324 316 317 0 0 8 30 321 149 0 324
 317 325 0 +.0552 .0401 0 -1 0 0 16 324 146 326 ?327 328 320 321 0 0 8 30 325 15
4 0 328 321 329 0 +.0533 .0401 0 0 1 0 16 328 151 330 ?331 332 324 325 0 0 8 30
 329 159 0 332 325 114 0 +.0533 .0492 0 -1 0 0 16 332 156 333 ?124 118 328 329 0
 0 8 30 114 164 0 118 329 23 0 +.05185 .0492 0 0 -1 0 16 118 161 334 ?121 26 332
 114 0 0 8 81 1 334 217 73 118 0 0 302 271 335 81 1 302 216 73 300 0 0 275 334 3
36 81 1 271 218 73 269 0 0 334 243 337 84 32 335 b02de6051fa0dc731c143b6aa583bb1
781 1 243 219 73 241 0 0 271 322 338 84 32 337 1d318f3b6f59c53e5f5e7dc1fb098d568
1 1 322 220 73 320 0 0 243 251 339 84 32 338 d9c8fe0fe546a4d9fece7a51ebef79cb81
 1 251 221 73 249 0 0 322 263 340 84 32 339 de0c7ef4ff5bdbfe54f79e85ed49bcc781 1
 263 222 73 261 0 0 251 236 341 84 32 340 b68462fd64befc2a7e6e7513b487767081 1 2
36 223 73 234 0 0 263 310 342 84 32 341 da4f74c9d69c1859acd93313294177f481 1 310
 224 73 308 0 0 236 318 343 84 32 342 4fc642fc882c8d709aad6d0a21dfcb8881 1 318 2
25 73 316 0 0 310 333 344 84 32 343 98170999d6e45e0375b17aeabf288ee881 1 333 226
 73 332 0 0 318 267 345 84 32 344 3a283a35f760537a2c6490cea4c8bc7a81 1 267 227 7
3 265 0 0 333 294 346 84 32 345 3fd4c1f7455e85c183528f3128e41a7081 1 294 228 73
 292 0 0 267 221 347 84 32 346 733a87c56d7d5d102f8a493e2bb993be81 1 221 229 73 2
85 0 0 294 218 348 84 32 347 2249c9be7e5208836127af232193a92384 32 348 d66427a9b
190d32a380057ad48cb1fb481 1 275 215 73 273 0 0 326 302 349 84 32 336 164888a467f
27a8ec6197dfd1c0621b781 1 326 214 73 324 0 0 0 275 350 84 32 349 89975a2a40b9771
fd7c7527812fca4d784 32 350 396627c172a6484c07ae27fb9b55058a17 124 0 213 121 331
 120 125 332 0 0 +17 331 0 213 124 327 123 130 328 0 0 +17 125 0 0 0 0 123 124 3
32 0 331 -17 327 0 213 331 323 126 133 324 0 0 +17 130 0 0 0 0 126 331 328 0 327
 -17 323 0 213 327 319 131 136 320 0 0 +17 133 0 0 0 0 131 327 324 0 323 -17 319
 0 213 323 315 134 139 316 0 0 +17 136 0 0 0 0 134 323 320 0 319 -17 315 0 213 3
19 311 137 142 312 0 0 +17 139 0 0 0 0 137 319 316 0 315 -17 311 0 213 315 307 1
40 145 308 0 0 +17 142 0 0 0 0 140 315 312 0 311 -17 307 0 213 311 303 143 148 3
04 0 0 +17 145 0 0 0 0 143 311 308 0 307 -17 303 0 213 307 299 146 151 300 0 0 +
17 148 0 0 0 0 146 307 304 0 303 -17 299 0 213 303 295 149 154 296 0 0 +17 151 0
 0 0 0 149 303 300 0 299 -17 295 0 213 299 291 152 157 292 0 0 +17 154 0 0 0 0 1
52 299 296 0 295 -17 291 0 213 295 287 155 160 288 0 0 +17 157 0 0 0 0 155 295 2
92 0 291 -17 287 0 213 291 284 158 163 285 0 0 +17 160 0 0 0 0 158 291 288 0 287
 -17 284 0 213 287 280 161 166 281 0 0 +17 163 0 0 0 0 161 287 285 0 284 -17 280
 0 213 284 276 164 169 277 0 0 +17 166 0 0 0 0 164 284 281 0 280 -17 276 0 213 2
80 272 167 172 273 0 0 +17 169 0 0 0 0 167 280 277 0 276 -17 272 0 213 276 268 1
70 175 269 0 0 +17 172 0 0 0 0 170 276 273 0 272 -17 268 0 213 272 264 173 178 2
65 0 0 +17 175 0 0 0 0 173 272 269 0 268 -17 264 0 213 268 260 176 181 261 0 0 +
17 178 0 0 0 0 176 268 265 0 264 -17 260 0 213 264 256 179 184 257 0 0 +17 181 0
 0 0 0 179 264 261 0 260 -17 256 0 213 260 252 182 187 253 0 0 +17 184 0 0 0 0 1
82 260 257 0 256 -17 252 0 213 256 248 185 190 249 0 0 +17 187 0 0 0 0 185 256 2
53 0 252 -17 248 0 213 252 244 188 193 245 0 0 +17 190 0 0 0 0 188 252 249 0 248
 -17 244 0 213 248 240 191 196 241 0 0 +17 193 0 0 0 0 191 248 245 0 244 -17 240
 0 213 244 237 194 199 238 0 0 +17 196 0 0 0 0 194 244 241 0 240 -17 237 0 213 2
40 233 197 202 234 0 0 +17 199 0 0 0 0 197 240 238 0 237 -17 233 0 213 237 205 2
00 351 230 0 0 +17 202 0 0 0 0 200 237 234 0 233 -17 205 0 213 233 216 203 208 2
25 0 351 +17 351 0 0 0 0 203 233 230 0 0 -17 216 0 213 205 214 206 211 219 0 0 +
17 208 0 0 0 0 206 205 225 0 216 -17 211 0 0 0 0 209 216 219 0 214 -81 1 330 234
 73 328 0 0 116 229 352 81 1 116 233 73 26 0 0 259 330 353 81 1 229 235 73 225 0
 0 330 279 354 84 32 352 56a9247879bc23e2dc858ae445dde65681 1 279 236 73 277 0 0
 229 290 355 84 32 354 1456b2bdcd89de620bcd46508dc9ab1d81 1 290 237 73 288 0 0 2
79 283 356 84 32 355 4b9a16a04191f04e8409ed6dcb58022581 1 283 238 73 281 0 0 290
 247 357 84 32 356 f753446b844943355a59455e5598b6b681 1 247 239 73 245 0 0 283 2
55 358 84 32 357 c622d98801a64aa713698ee089de323481 1 255 240 73 253 0 0 247 306
 359 84 32 358 ff448dfa2f9cc6f61603c220fa6180ef81 1 306 241 73 304 0 0 255 298 3
60 84 32 359 208189fc8b24d181476d778ed1679de781 1 298 242 73 296 0 0 306 314 361
 84 32 360 2a606cf3f9675253c83b399131d97cb981 1 314 243 73 312 0 0 298 224 362 8
4 32 361 814d847b3f10b5a4547b4cdb8c0d992c81 1 224 244 73 219 0 0 314 232 363 84
 32 362 188a38c1bd2459ed56333ff276282c2381 1 232 245 73 230 0 0 224 364 365 84 3
2 363 baeb76b5d4e65fe7d624a33a82f7129c81 1 364 246 73 113 0 366 232 0 367 84 32
 365 ac939138dfeac69791b98440be68cbcb14 113 169 368 ?0 0 213 21 22 +0 0 0 0 21 8
1 3 366 249 369 113 364 370 0 0 371 372 0 84 32 367 8e16e86d4bd720344df4f286598c
bd5a80 3 369 373 374 9000 0 0 0 0 3 6 0 0 0 FFFFTFTTFFFFFF1 1 3 81 1 370 255 96
 113 366 368 0 0 375 82 1 371 2 82 1 372 11054 81 1 368 256 100 113 370 0 0 0 37
6 83 1 375 0 83 3 376 1 .9803922 .7490196 79 27 374 MONIKER/MONIKER_DATA_ATTRIB8
1 1 259 232 73 257 0 0 222 116 377 84 32 353 5771c14b24d2efcc3a63218aa91da97c81
 1 222 231 73 238 0 0 218 259 378 84 32 377 6200a410654468d597980ea8757ed8f184 3
2 378 128dde7d7736af9178239d024a492bdb84 32 223 3f08c4ef7116103fd958948f7a738543
74 20 112 8 0 0 364 379 366 380 110 370 368 18 0 0 0 0 0 0 0 0 0 0 0 0 81 2 379
 247 103 8 0 381 0 0 382 383 81 3 380 252 384 8 385 110 385 0 386 387 388 81 2 1
10 253 389 8 380 18 0 0 390 0 80 2 389 384 391 9000 2 2 2 2 3 6 0 0 0 FFTFFFFFFF
FFFF2 3 83 1 390 1612529 79 22 391 MONIKER/BODY_ID_ATTRIB80 3 384 369 392 9000 0
 0 0 0 3 6 0 0 0 FFTFFFFFFFFFFF3 3 1 81 3 385 251 384 8 381 380 381 380 393 394
 395 84 38 386 {a98950a1-50a1-4035-8fe8-27efae64e592}84 21 387 NX 12.0.0.27-huan
glei82 1 388 2 81 3 381 250 384 8 379 385 0 385 396 397 398 84 38 393 {68c81f4a-
1f4a-403e-9414-c0ef11340473}84 21 394 NX 7.5.5.4-zhouzetang82 1 395 1 84 38 396
 {11d83d98-3d98-417c-b6e0-984c55c6f165}84 21 397 NX 7.5.5.4-zhouzetang82 1 398 0
 79 25 392 MONIKER/GUID_TABLE_ATTRIB83 1 382 7830.64 84 8 383 Kg/Cu M 82 1 111 2
 81 1 6 373 39 3 399 0 0 0 400 70 7 0 4 T3 0 0 7 20 1 401 401 13 9 3 0 3 0 402 0
 0 13 402 50 10 150 0 402 0 0 0 +.03851489875495855 -.024 0 0 0 1 1 0 0 30 11 26
7 0 14 403 0 0 -.0872 .01175 0 -179068229778251e-29 -1 0 29 12 264 0 15 404 0 .0
872 .01175 0 19 13 1 0 3 0 0 9 V0 16 14 265 405 ?406 0 407 11 0 0 3 18 15 260 0
 406 0 408 12 ?3 17 406 0 409 410 411 15 412 14 0 413 +18 408 255 0 412 15 414 4
04 ?3 17 412 0 0 0 0 408 406 14 0 411 -18 414 140 0 415 408 416 417 ?3 29 404 25
9 0 408 417 12 .0872 -.0115 0 29 417 142 0 414 418 404 .037 .031 0 29 418 137 0
 416 419 417 .037 .07044 0 18 416 135 0 420 414 421 418 ?3 29 419 132 0 421 422
 418 .0461 .07044 0 18 421 130 0 423 416 424 419 ?3 29 422 127 0 424 425 419 .04
61 .0467 0 18 424 125 0 426 421 427 422 ?3 29 425 122 0 427 428 422 .042 .041813
81027036375 0 18 427 120 0 429 424 430 425 ?3 29 428 117 0 430 431 425 .042 .029
30078077484005 0 18 430 115 0 432 427 433 428 ?3 29 431 112 0 433 434 428 .05925
11090792571 .00949059151007388 0 18 433 110 0 435 430 436 431 ?3 29 434 107 0 43
6 437 431 .0718567105125762 .00774141976479503 0 18 436 105 0 438 433 439 434 ?3
 29 437 102 0 439 440 434 .0778006643796713 .00811017431903364 0 18 439 100 0 44
1 436 442 437 ?3 29 440 97 0 442 443 437 .086 .01030717967697246 0 18 442 95 0 4
44 439 445 440 ?3 29 443 92 0 445 446 440 .086 .01175 0 18 445 90 0 410 442 447
 443 ?3 29 446 77 0 447 448 443 .086 -.0115 0 18 447 75 0 449 445 450 446 ?3 29
 448 72 0 450 451 446 .079059898116303 -.00749313030924413 0 18 450 70 0 452 447
 453 448 ?3 29 451 67 0 453 454 448 .076499046751634 -.00749313030924412 0 18 45
3 65 0 455 450 456 451 ?3 29 454 62 0 456 457 451 .073999046751634 -.00999313030
924412 0 18 456 60 0 458 453 459 454 ?3 29 457 57 0 459 460 454 .073999046751634
 -.01249313030924412 0 18 459 55 0 461 456 462 457 ?3 29 460 52 0 462 463 457 .0
70999046751634 -.01249313030924412 0 18 462 50 0 464 459 465 460 ?3 29 463 47 0
 465 466 460 .070999046751634 -.01073128778855522 0 18 465 45 0 467 462 468 463
 ?3 29 466 42 0 468 469 463 .0681554353865411 -.00825501413045944 0 18 468 40 0
 470 465 471 466 ?3 29 469 37 0 471 472 466 .0605200754848964 -.0093145078702575
7 0 18 471 35 0 473 468 474 469 ?3 29 472 32 0 474 475 469 .0459484583299505 -.0
1912469713502375 0 18 474 30 0 476 471 477 472 ?3 29 475 27 0 477 478 472 .04197
90003700963 -.026 0 18 477 25 0 479 474 480 475 ?3 29 478 22 0 480 481 475 .0385
1489875495855 -.028 0 18 480 20 0 482 477 483 478 ?3 29 481 17 0 483 484 478 .02
525 -.028 0 18 483 15 0 485 480 486 481 ?3 29 484 12 0 486 487 481 .02525 -.0844
 0 18 486 10 0 488 483 489 484 ?3 29 487 7 0 489 490 484 .02149999999999975 -.08
44 0 18 489 5 0 491 486 492 487 ?3 29 490 4 0 492 0 487 .0215 .031 0 18 492 2 0
 493 489 0 490 ?3 17 493 0 0 0 0 492 491 494 0 495 -17 491 0 409 488 495 489 493
 494 0 496 +16 494 6 497 ?491 498 0 499 0 0 3 17 495 0 409 491 415 492 500 407 0
 0 +15 409 266 0 406 402 0 17 415 0 409 495 420 414 501 502 0 500 +17 500 0 0 0
 0 414 495 407 0 0 -16 407 145 503 ?495 14 502 403 0 0 3 81 1 503 341 100 407 50
4 0 405 505 506 16 502 141 505 ?415 407 507 508 0 0 3 30 403 147 0 407 508 11 0
 +.037 .031 0 -1 0 0 30 508 144 0 502 509 403 0 +.037 .07044 0 0 -1 0 30 509 139
 0 507 510 508 0 +.0461 .07044 0 -1 0 0 16 507 136 511 ?420 502 512 509 0 0 3 30
 510 134 0 512 513 509 0 +.0461 .0467 0 0 1 0 16 512 131 514 ?423 507 515 510 0
 0 3 30 513 129 0 515 516 510 0 +.042 .04181381027036375 0 .642787609686539 .766
044443118979 0 16 515 126 517 ?426 512 518 513 0 0 3 30 516 124 0 518 519 513 0
 +.042 .02930078077484005 0 554533488983582e-30 1 0 16 518 121 520 ?429 515 521
 516 0 0 3 31 519 119 0 521 522 516 0 +.062 .02930078077484005 0 0 0 -1 18369701
9872103e-30 -1 0 .02 16 521 116 523 ?432 518 524 519 0 0 3 30 522 114 0 524 525
 519 0 +.0718567105125763 .00774141976479503 0 -.990509463238309 .13744454603714
72 0 16 524 111 526 ?435 521 527 522 0 0 3 31 525 109 0 527 528 522 0 +.07391837
87031335 .02259906171336965 0 0 0 -1 1 1224646799147352e-31 0 .015 16 527 106 52
9 ?438 524 530 525 0 0 3 30 528 104 0 530 531 525 0 +.086 .01030717967697246 0 -
.965925826289068 -.2588190451025205 0 16 530 101 532 ?441 527 533 528 0 0 3 30 5
31 99 0 533 534 528 0 +.086 .01175 0 0 -1 0 16 533 96 535 ?444 530 536 531 0 0 3
 30 534 94 0 536 537 531 0 +.0982 .01175 0 -1 0 0 16 536 261 538 ?410 533 539 53
4 0 0 3 30 537 84 0 539 540 534 0 +.086 -.0115 0 1 0 0 16 539 81 541 ?411 536 54
2 537 0 0 3 30 540 79 0 542 543 537 0 +.079059898116303 -.00749313030924412 0 .8
6602540378444 -.5 0 16 542 76 544 ?449 539 545 540 0 0 3 30 543 74 0 545 546 540
 0 +.076499046751634 -.00749313030924413 0 1 0 0 16 545 71 547 ?452 542 548 543
 0 0 3 31 546 69 0 548 549 543 0 +.076499046751634 -.00999313030924412 0 0 0 -1
 1 1224646799147352e-31 0 .0025 16 548 66 550 ?455 545 551 546 0 0 3 30 549 64 0
 551 552 546 0 +.073999046751634 -.01249313030924412 0 0 1 0 16 551 61 553 ?458
 548 554 549 0 0 3 30 552 59 0 554 555 549 0 +.070999046751634 -.012493130309244
12 0 1 0 0 16 554 56 556 ?461 551 557 552 0 0 3 30 555 54 0 557 558 552 0 +.0709
99046751634 -.01073128778855522 0 0 -1 0 16 557 51 559 ?464 554 560 555 0 0 3 31
 558 49 0 560 561 555 0 +.068499046751634 -.01073128778855522 0 0 0 -1 1 1224646
799147352e-31 0 .0025 16 560 46 562 ?467 557 563 558 0 0 3 30 561 44 0 563 564 5
58 0 +.0605200754848964 -.00931450787025758 0 .990509463238309 .137444546037147
 0 16 563 41 565 ?470 560 566 561 0 0 3 31 564 39 0 566 567 561 0 +.063268966405
6393 -.02912469713502375 0 0 0 -1 1 1224646799147352e-31 0 .02 16 566 36 568 ?47
3 563 569 564 0 0 3 30 567 34 0 569 570 564 0 +.0419790003700963 -.026 0 .5 .866
025403784439 0 16 569 31 571 ?476 566 572 567 0 0 3 31 570 29 0 572 573 567 0 +.
03851489875495855 -.024 0 0 0 1 1 0 0 .004 16 572 26 574 ?479 569 575 570 0 0 3
 30 573 24 0 575 576 570 0 +.02525 -.028 0 1 0 0 16 575 21 577 ?482 572 578 573
 0 0 3 30 576 19 0 578 579 573 0 +.02525 -.0844 0 0 1 0 16 578 16 580 ?485 575 4
98 576 0 0 3 30 579 14 0 498 499 576 0 +.02149999999999975 -.0844 0 1 0 0 16 498
 11 581 ?488 578 494 579 0 0 3 30 499 9 0 494 0 579 0 +.0215 .031 0 -19842590886
3898e-29 -1 0 81 1 581 367 100 498 582 0 580 497 583 17 488 0 409 485 491 486 49
6 498 0 584 +17 485 0 409 482 488 483 584 578 0 585 +17 496 0 0 0 0 489 488 498
 0 0 -17 584 0 0 0 0 486 485 578 0 0 -17 482 0 409 479 485 480 585 575 0 586 +17
 585 0 0 0 0 483 482 575 0 0 -17 479 0 409 476 482 477 586 572 0 587 +17 586 0 0
 0 0 480 479 572 0 0 -17 476 0 409 473 479 474 587 569 0 588 +17 587 0 0 0 0 477
 476 569 0 0 -17 473 0 409 470 476 471 588 566 0 589 +17 588 0 0 0 0 474 473 566
 0 0 -17 470 0 409 467 473 468 589 563 0 590 +17 589 0 0 0 0 471 470 563 0 0 -17
 467 0 409 464 470 465 590 560 0 591 +17 590 0 0 0 0 468 467 560 0 0 -17 464 0 4
09 461 467 462 591 557 0 592 +17 591 0 0 0 0 465 464 557 0 0 -17 461 0 409 458 4
64 459 592 554 0 593 +17 592 0 0 0 0 462 461 554 0 0 -17 458 0 409 455 461 456 5
93 551 0 594 +17 593 0 0 0 0 459 458 551 0 0 -17 455 0 409 452 458 453 594 548 0
 595 +17 594 0 0 0 0 456 455 548 0 0 -17 452 0 409 449 455 450 595 545 0 596 +17
 595 0 0 0 0 453 452 545 0 0 -17 449 0 409 411 452 447 596 542 0 597 +17 596 0 0
 0 0 450 449 542 0 0 -17 411 0 409 406 449 408 597 539 0 0 +17 597 0 0 0 0 447 4
11 539 0 0 -81 1 582 208 73 498 0 581 598 599 600 81 1 580 366 100 578 601 0 577
 581 602 81 1 497 368 100 494 603 0 581 604 605 83 3 583 1 .980392156862745 .749
004348821241 81 1 603 202 73 494 0 497 606 607 608 81 1 604 372 100 402 609 0 49
7 0 610 83 3 605 1 .980392156862745 .749004348821241 14 402 149 604 ?0 0 409 9 1
0 +0 0 0 0 9 81 1 609 371 96 402 611 604 0 0 612 83 3 610 1 .9803922 .7490196 81
 1 611 325 73 402 0 609 613 0 614 83 1 612 0 81 1 613 324 73 14 0 405 615 611 61
6 84 32 614 197234481384d3508fe5ecaef6be467e81 1 405 340 100 14 613 0 0 503 617
 81 1 615 323 73 539 0 541 618 613 619 84 32 616 3ce16bbc7cd46e085a489e4533b1134
881 1 541 353 100 539 615 0 538 544 620 81 1 618 322 73 536 0 538 621 615 622 84
 32 619 ea1517e1e2eaee4a178041e77196449081 1 538 352 100 536 618 0 535 541 623 8
1 1 621 216 73 563 0 565 624 618 625 84 32 622 1df6f4288dbaa2e0b5820e5829aa2d328
1 1 565 361 100 563 621 0 562 568 626 81 1 624 215 73 530 0 532 627 621 628 84 3
2 625 3b66c757d393b5a9eafcd9bf2612283881 1 532 350 100 530 624 0 529 535 629 81
 1 627 213 73 569 0 571 630 624 631 84 32 628 09d7217f8241d2d783ebf77af1df726d81
 1 571 363 100 569 627 0 568 574 632 81 1 630 212 73 527 0 529 633 627 634 84 32
 631 da342ca8bf538fc9c5e9067a3aa6c40481 1 529 349 100 527 630 0 526 532 635 81 1
 633 211 73 545 0 547 599 630 636 84 32 634 3349284ad671ca215844a46e18732b1981 1
 547 355 100 545 633 0 544 550 637 81 1 599 209 73 551 0 553 582 633 638 84 32 6
36 a29050d1ab074722fdcf82431f3a808f81 1 553 357 100 551 599 0 550 556 639 84 32
 638 66a2408456f79067c4e1b142fb8ffc9481 1 550 356 100 548 640 0 547 553 641 81 1
 556 358 100 554 642 0 553 559 643 83 3 639 1 .980392156862745 .749004348821241
 81 1 642 190 73 554 0 556 644 645 646 81 1 559 359 100 557 647 0 556 562 648 83
 3 643 1 .980392156862745 .749004348821241 81 1 647 199 73 557 0 559 504 606 649
 81 1 562 360 100 560 650 0 559 565 651 83 3 648 1 .980392156862745 .74900434882
1241 81 1 650 204 73 560 0 562 607 601 652 83 3 651 1 .980392156862745 .74900434
8821241 81 1 607 203 73 515 0 517 603 650 653 81 1 601 205 73 578 0 580 650 654
 655 84 32 652 52a268bf0ba5b27303b9ea963e48d1b681 1 654 206 73 533 0 535 601 598
 656 84 32 655 92b5e432c13ff029d569a660285e602b81 1 535 351 100 533 654 0 532 53
8 657 81 1 598 207 73 566 0 568 654 582 658 84 32 656 0dabfc94a70a5588a2ded60df3
c9281181 1 568 362 100 566 598 0 565 571 659 84 32 658 98ca4421b933221aa3ad846c8
6ea351d83 3 659 1 .980392156862745 .749004348821241 83 3 657 1 .980392156862745
 .749004348821241 81 1 517 345 100 515 607 0 514 520 660 84 32 653 650c255467077
730361525b6bb712b9281 1 514 344 100 512 606 0 511 517 661 81 1 520 346 100 518 6
62 0 517 523 663 83 3 660 1 .980392156862745 .749004348821241 81 1 662 192 73 51
8 0 520 645 664 665 81 1 523 347 100 521 666 0 520 526 667 83 3 663 1 .980392156
862745 .749004348821241 81 1 666 194 73 521 0 523 664 668 669 81 1 526 348 100 5
24 668 0 523 529 670 83 3 667 1 .980392156862745 .749004348821241 81 1 668 195 7
3 524 0 526 666 671 672 83 3 670 1 .980392156862745 .749004348821241 81 1 671 19
6 73 575 0 577 668 673 674 84 32 672 cdec75854cdd74c7aa753fae60a97bd481 1 577 36
5 100 575 671 0 574 580 675 81 1 673 197 73 542 0 544 671 504 676 84 32 674 efcb
9df19c45150b6e916ce741656c5081 1 544 354 100 542 673 0 541 547 677 81 1 504 198
 73 407 0 503 673 647 678 84 32 676 a52fbc6c63818358a9fe67cd42a9826d84 32 678 5d
29940a99fd15cad28d6c0278642e9e83 3 677 1 .980392156862745 .749004348821241 81 1
 574 364 100 572 664 0 571 577 679 83 3 675 1 .980392156862745 .749004348821241
 81 1 664 193 73 572 0 574 662 666 680 83 3 679 1 .980392156862745 .749004348821
241 84 32 680 2480a2e1059d143695176c1b5e9058d684 32 669 cfc60ccb3ff4c5b6911d5409
eae3882b81 1 645 191 73 507 0 511 642 662 681 84 32 665 294d0c3108d54ba1afc85340
62d7262e81 1 511 343 100 507 645 0 505 514 682 84 32 681 e90d746a718dbfb3bd9c9df
e4af7b8df81 1 505 342 100 502 644 0 503 511 683 83 3 682 1 .980392156862745 .749
004348821241 81 1 644 189 73 502 0 505 640 642 684 83 3 683 1 .980392156862745 .
749004348821241 81 1 640 188 73 548 0 550 0 644 685 84 32 684 533b85802a40f62dd1
e8cc1fe9b951cc84 32 685 c6aff06953ea34a4acd164e6064c5a4781 1 606 200 73 512 0 51
4 647 603 686 83 3 661 1 .980392156862745 .749004348821241 84 32 686 04d5804d5c8
a0ff7ec96fb7371fb01e484 32 649 e158cea25e68c874ff854297a533381584 32 646 b577c9a
787a90cb004913b7f326dc19783 3 641 1 .980392156862745 .749004348821241 83 3 637 1
 .980392156862745 .749004348821241 83 3 635 1 .980392156862745 .749004348821241
 83 3 632 1 .980392156862745 .749004348821241 83 3 629 1 .980392156862745 .74900
4348821241 83 3 626 1 .980392156862745 .749004348821241 83 3 623 1 .980392156862
745 .749004348821241 83 3 620 1 .980392156862745 .749004348821241 83 3 617 1 .98
0392156862745 .749004348821241 84 32 608 04323cfd94443d2d37475448a861d05483 3 60
2 1 .980392156862745 .749004348821241 84 32 600 9ae4a3f6cb3589a4985e9439c409f119
17 410 0 409 444 406 445 413 536 0 687 +17 444 0 409 441 410 442 687 533 0 688 +
17 413 0 0 0 0 15 410 536 0 0 -17 687 0 0 0 0 445 444 533 0 0 -17 441 0 409 438
 444 439 688 530 0 689 +17 688 0 0 0 0 442 441 530 0 0 -17 438 0 409 435 441 436
 689 527 0 690 +17 689 0 0 0 0 439 438 527 0 0 -17 435 0 409 432 438 433 690 524
 0 691 +17 690 0 0 0 0 436 435 524 0 0 -17 432 0 409 429 435 430 691 521 0 692 +
17 691 0 0 0 0 433 432 521 0 0 -17 429 0 409 426 432 427 692 518 0 693 +17 692 0
 0 0 0 430 429 518 0 0 -17 426 0 409 423 429 424 693 515 0 694 +17 693 0 0 0 0 4
27 426 515 0 0 -17 423 0 409 420 426 421 694 512 0 695 +17 694 0 0 0 0 424 423 5
12 0 0 -17 420 0 409 415 423 416 695 507 0 501 +17 695 0 0 0 0 421 420 507 0 0 -
17 501 0 0 0 0 416 415 502 0 0 -83 3 506 1 .980392156862745 .749004348821241 74
 20 401 7 0 0 611 696 697 604 399 609 6 0 0 0 0 0 0 0 0 0 0 0 0 0 81 2 696 321 1
03 3 0 697 0 0 698 699 81 1 697 338 700 3 696 399 0 0 701 81 1 399 370 702 3 697
 6 0 0 703 80 1 702 704 705 9000 0 0 0 0 3 5 0 0 0 FTTFTFTTFFFFFF1 82 1 703 1 79
 23 705 ATTRIB_XPARASOLID_LAYER80 1 700 706 707 9000 0 0 0 0 3 5 0 0 0 FFTFFFFFF
FFFFF1 82 1 701 -1 79 19 707 UG2/PMARK_ATTRIBUTE83 1 698 7830.64 84 8 699 Kg/Cu
 M 82 1 400 2 1 0 
