2200 0 3 0           
34 SPATIAL - INTEROP Version - 26.0.1 14 ACIS 26.0.1 NT 24 Mon Jun 21 15:22:41 2021 
1 9.9999999999999995e-007 1e-010 
body $3 144 -1 $-1 $4 $-1 $-1 T 21.499999999999773 -84.400000000000006 0 87.200000000000003 70.439999999999998 0 #
body $5 204 -1 $-1 $6 $-1 $-1 T 46.099999999999994 51.100000000000001 0 50.799999999999997 65.100000000000009 0 #
body $7 218 -1 $-1 $8 $-1 $-1 T 46.100000000000001 10.700000000000006 0 99.200000000000017 60.200000000000003 0 #
integer_attrib-name_attrib-gen-attrib $-1 -1 $-1 $-1 $0 2 1 2 1 1 1 1 1 1 1 1 1 1 1 0 1 1 1 @18 ATTRIB_XACIS_LAYER 1 #
lump $-1 -1 -1 $-1 $-1 $9 $0 T 21.499999999999773 -84.400000000000006 0 87.200000000000003 70.439999999999998 0 #
integer_attrib-name_attrib-gen-attrib $-1 -1 $-1 $-1 $1 2 1 2 1 1 1 1 1 1 1 1 1 1 1 0 1 1 1 @18 ATTRIB_XACIS_LAYER 1 #
lump $-1 -1 -1 $-1 $-1 $10 $1 T 46.099999999999994 51.100000000000001 0 50.799999999999997 65.100000000000009 0 #
integer_attrib-name_attrib-gen-attrib $-1 -1 $-1 $-1 $2 2 1 2 1 1 1 1 1 1 1 1 1 1 1 0 1 1 1 @18 ATTRIB_XACIS_LAYER 1 #
lump $-1 -1 -1 $-1 $-1 $11 $2 T 46.100000000000001 10.700000000000006 0 99.200000000000017 60.200000000000003 0 #
shell $-1 -1 -1 $-1 $-1 $-1 $12 $-1 $4 T 21.499999999999773 -84.400000000000006 0 87.200000000000003 70.439999999999998 0 #
shell $-1 -1 -1 $-1 $-1 $-1 $13 $-1 $6 T 46.099999999999994 51.100000000000001 0 50.799999999999997 65.100000000000009 0 #
shell $-1 -1 -1 $-1 $-1 $-1 $14 $-1 $8 T 46.100000000000001 10.700000000000006 0 99.200000000000017 60.200000000000003 0 #
face $15 145 -1 $-1 $-1 $16 $9 $-1 $17 forward double out T 21.499999999999773 -84.400000000000006 0 87.200000000000003 70.439999999999998 0 F #
face $18 205 -1 $-1 $-1 $19 $10 $-1 $20 forward double out T 46.099999999999994 51.100000000000001 0 50.799999999999997 65.100000000000009 0 F #
face $21 219 -1 $-1 $-1 $22 $11 $-1 $23 forward double out T 46.100000000000001 10.700000000000006 0 99.200000000000017 60.200000000000003 0 F #
rgb_color-st-attrib $-1 -1 $-1 $-1 $12 2 1 2 1 1 1 1 1 1 1 1 1 1 1 0 1 1 1 1 0.98039215803146362 0.74900436401367188 #
loop $-1 -1 -1 $-1 $-1 $24 $12 T 21.499999999999773 -84.400000000000006 0 87.200000000000003 70.439999999999998 0 unknown #
plane-surface $-1 -1 -1 $-1 38.514898754958537 -24 0 0 0 1 1000 0 -0 forward_v I I I I #
rgb_color-st-attrib $-1 -1 $-1 $-1 $13 2 1 2 1 1 1 1 1 1 1 1 1 1 1 0 1 1 1 1 0.98039215803146362 0.74900436401367188 #
loop $-1 -1 -1 $-1 $-1 $25 $13 T 46.099999999999994 51.100000000000001 0 50.799999999999997 65.100000000000009 0 unknown #
plane-surface $-1 -1 -1 $-1 1.0999999999999945 51.100000000000001 0 -0 0 1 1000 0 0 forward_v I I I I #
rgb_color-st-attrib $-1 -1 $-1 $-1 $14 2 1 2 1 1 1 1 1 1 1 1 1 1 1 0 1 1 1 1 0.98039215803146362 0.74900436401367188 #
loop $-1 -1 -1 $-1 $-1 $26 $14 T 46.100000000000001 10.700000000000006 0 99.200000000000017 60.200000000000003 0 unknown #
plane-surface $-1 -1 -1 $-1 62.799999999999997 27.40989831222748 0 0 0 1 1000 0 -0 forward_v I I I I #
coedge $-1 -1 -1 $-1 $27 $28 $-1 $29 forward $16 $-1 #
coedge $-1 -1 -1 $-1 $30 $31 $-1 $32 forward $19 $-1 #
coedge $-1 -1 -1 $-1 $33 $34 $-1 $35 forward $22 $-1 #
coedge $-1 -1 -1 $-1 $36 $24 $-1 $37 forward $16 $-1 #
coedge $-1 -1 -1 $-1 $24 $38 $-1 $39 forward $16 $-1 #
edge $40 146 -1 $-1 $41 -0.023250000000000035 $42 -2.949029909160577e-017 $24 $43 reversed @7 unknown T 87.19999999999996 -11.5 0 87.200000000000003 11.750000000000007 0 #
coedge $-1 -1 -1 $-1 $44 $25 $-1 $45 forward $19 $-1 #
coedge $-1 -1 -1 $-1 $25 $46 $-1 $47 forward $19 $-1 #
edge $48 206 -1 $-1 $49 0 $50 0.010000000000000002 $25 $51 forward @7 unknown T 46.099999999999994 51.100000000000001 0 46.099999999999994 61.100000000000001 0 #
coedge $-1 -1 -1 $-1 $52 $26 $-1 $53 forward $22 $-1 #
coedge $-1 -1 -1 $-1 $26 $54 $-1 $55 forward $22 $-1 #
edge $56 220 -1 $-1 $57 0 $58 0.0039000000000000007 $26 $59 forward @7 unknown T 46.100000000000001 47.200000000000003 0 46.100000000000001 51.100000000000009 0 #
coedge $-1 -1 -1 $-1 $60 $27 $-1 $61 forward $16 $-1 #
edge $62 147 -1 $-1 $42 0.011000000000000038 $63 0.012200000000000003 $27 $64 forward @7 unknown T 86 11.750000000000007 0 87.199999999999974 11.750000000000007 0 #
coedge $-1 -1 -1 $-1 $28 $65 $-1 $66 forward $16 $-1 #
edge $67 174 -1 $-1 $68 0 $41 0.001199999999999965 $28 $69 forward @7 unknown T 86 -11.5 0 87.199999999999974 -11.5 0 #
rgb_color-st-attrib $-1 -1 $-1 $-1 $29 2 1 2 1 1 1 1 1 1 1 1 1 1 1 0 1 1 1 1 0.98039215803146362 0.74900436401367188 #
vertex $-1 175 -1 $-1 $29 $70 #
vertex $-1 176 -1 $-1 $29 $71 #
straight-curve $-1 -1 -1 $-1 87.200000000000003 11.750000000000037 0 -1.7906822977825082e-012 -1000 0 F 2.949029909160577e-017 F 0.023250000000000035 #
coedge $-1 -1 -1 $-1 $72 $30 $-1 $73 forward $19 $-1 #
edge $74 207 -1 $-1 $50 0 $75 0.0047000000000000028 $30 $76 forward @7 unknown T 46.099999999999994 51.100000000000001 0 50.799999999999997 51.100000000000001 0 #
coedge $-1 -1 -1 $-1 $31 $72 $-1 $77 forward $19 $-1 #
edge $78 211 -1 $-1 $79 0 $49 0.0022627416997969578 $31 $80 forward @7 unknown T 46.099999999999994 61.100000000000001 0 47.700000000000003 62.700000000000003 0 #
rgb_color-st-attrib $-1 -1 $-1 $-1 $32 2 1 2 1 1 1 1 1 1 1 1 1 1 1 0 1 1 1 1 0.98039215803146362 0.74900436401367188 #
vertex $-1 212 -1 $-1 $47 $81 #
vertex $-1 213 -1 $-1 $45 $82 #
straight-curve $-1 -1 -1 $-1 46.099999999999994 61.100000000000001 0 0 -1000 0 F 0 F 0.010000000000000002 #
coedge $-1 -1 -1 $-1 $83 $33 $-1 $84 forward $22 $-1 #
edge $85 221 -1 $-1 $58 0 $86 0.0011999999999999927 $33 $87 forward @7 unknown T 46.100000000000001 47.200000000000003 0 47.299999999999997 47.200000000000003 0 #
coedge $-1 -1 -1 $-1 $34 $88 $-1 $89 forward $22 $-1 #
edge $90 251 -1 $-1 $91 0 $57 0.0057499999999999982 $34 $92 forward @7 unknown T 46.100000000000001 51.100000000000009 0 51.850000000000001 51.100000000000009 0 #
rgb_color-st-attrib $-1 -1 $-1 $-1 $35 2 1 2 1 1 1 1 1 1 1 1 1 1 1 0 1 1 1 1 0.98039215803146362 0.74900436401367188 #
vertex $-1 252 -1 $-1 $55 $93 #
vertex $-1 253 -1 $-1 $53 $94 #
straight-curve $-1 -1 -1 $-1 46.100000000000001 51.100000000000009 0 0 -1000 0 F 0 F 0.0039000000000000007 #
coedge $-1 -1 -1 $-1 $95 $36 $-1 $96 forward $16 $-1 #
edge $97 148 -1 $-1 $63 0 $98 0.0014428203230275501 $36 $99 forward @7 unknown T 86 10.307179676972456 0 86 11.750000000000007 0 #
rgb_color-st-attrib $-1 -1 $-1 $-1 $37 2 1 2 1 1 1 1 1 1 1 1 1 1 1 0 1 1 1 1 0.98039215803146362 0.74900436401367188 #
vertex $-1 177 -1 $-1 $37 $100 #
straight-curve $-1 -1 -1 $-1 98.200000000000003 11.750000000000007 0 -1000 0 0 F 0.011000000000000038 F 0.012200000000000003 #
coedge $-1 -1 -1 $-1 $38 $101 $-1 $102 forward $16 $-1 #
edge $103 173 -1 $-1 $104 1.4186921134868292e-017 $68 0.0080137393815117846 $38 $105 forward @7 unknown T 79.059898116303017 -11.5 0 86.000000000000014 -7.4931303092441262 0 #
rgb_color-st-attrib $-1 -1 $-1 $-1 $39 2 1 2 1 1 1 1 1 1 1 1 1 1 1 0 1 1 1 1 0.98039215803146362 0.74900436401367188 #
vertex $-1 203 -1 $-1 $66 $106 #
straight-curve $-1 -1 -1 $-1 86 -11.5 0 1000 0 0 F 0 F 0.001199999999999965 #
point $-1 -1 -1 $-1 87.199999999999974 -11.5 0 #
point $-1 -1 -1 $-1 87.199999999999974 11.750000000000007 0 #
coedge $-1 -1 -1 $-1 $46 $44 $-1 $107 forward $19 $-1 #
edge $108 208 -1 $-1 $75 0 $109 0.014000000000000005 $44 $110 forward @7 unknown T 50.799999999999997 51.100000000000001 0 50.799999999999997 65.100000000000009 0 #
rgb_color-st-attrib $-1 -1 $-1 $-1 $45 2 1 2 1 1 1 1 1 1 1 1 1 1 1 0 1 1 1 1 0.98039215803146362 0.74900436401367188 #
vertex $-1 214 -1 $-1 $73 $111 #
straight-curve $-1 -1 -1 $-1 46.099999999999994 51.100000000000001 0 1000 1.8760546710342359e-013 0 F 0 F 0.0047000000000000028 #
edge $112 210 -1 $-1 $113 0 $79 0.0023999999999999994 $46 $114 forward @7 unknown T 47.700000000000003 62.700000000000003 0 47.700000000000003 65.100000000000009 0 #
rgb_color-st-attrib $-1 -1 $-1 $-1 $47 2 1 2 1 1 1 1 1 1 1 1 1 1 1 0 1 1 1 1 0.98039215803146362 0.74900436401367188 #
vertex $-1 217 -1 $-1 $47 $115 #
straight-curve $-1 -1 -1 $-1 47.700000000000003 62.700000000000003 0 -707.10678118654869 -707.10678118654641 0 F 0 F 0.0022627416997969578 #
point $-1 -1 -1 $-1 46.099999999999994 61.100000000000001 0 #
point $-1 -1 -1 $-1 46.099999999999994 51.100000000000001 0 #
coedge $-1 -1 -1 $-1 $116 $52 $-1 $117 forward $22 $-1 #
edge $118 222 -1 $-1 $86 0 $119 0.019790101687772527 $52 $120 forward @7 unknown T 47.299999999999997 27.409898312227476 0 47.299999999999997 47.200000000000003 0 #
rgb_color-st-attrib $-1 -1 $-1 $-1 $53 2 1 2 1 1 1 1 1 1 1 1 1 1 1 0 1 1 1 1 0.98039215803146362 0.74900436401367188 #
vertex $-1 254 -1 $-1 $84 $121 #
straight-curve $-1 -1 -1 $-1 46.100000000000001 47.200000000000003 0 1000 0 0 F 0 F 0.0011999999999999927 #
coedge $-1 -1 -1 $-1 $54 $122 $-1 $123 forward $22 $-1 #
edge $124 250 -1 $-1 $125 0 $91 0.009099999999999997 $54 $126 forward @7 unknown T 51.850000000000001 51.100000000000009 0 51.850000000000001 60.200000000000003 0 #
rgb_color-st-attrib $-1 -1 $-1 $-1 $55 2 1 2 1 1 1 1 1 1 1 1 1 1 1 0 1 1 1 1 0.98039215803146362 0.74900436401367188 #
vertex $-1 283 -1 $-1 $55 $127 #
straight-curve $-1 -1 -1 $-1 51.850000000000001 51.100000000000009 0 -1000 0 0 F 0 F 0.0057499999999999982 #
point $-1 -1 -1 $-1 46.100000000000001 51.100000000000009 0 #
point $-1 -1 -1 $-1 46.100000000000001 47.200000000000003 0 #
coedge $-1 -1 -1 $-1 $128 $60 $-1 $129 forward $16 $-1 #
edge $130 149 -1 $-1 $98 0 $131 0.0084885768629142707 $60 $132 forward @7 unknown T 77.800664379671261 8.1101743190336357 0 86 10.307179676972456 0 #
rgb_color-st-attrib $-1 -1 $-1 $-1 $61 2 1 2 1 1 1 1 1 1 1 1 1 1 1 0 1 1 1 1 0.98039215803146362 0.74900436401367188 #
vertex $-1 178 -1 $-1 $61 $133 #
straight-curve $-1 -1 -1 $-1 86 11.750000000000007 0 0 -1000 0 F 0 F 0.0014428203230275501 #
point $-1 -1 -1 $-1 86 11.750000000000007 0 #
coedge $-1 -1 -1 $-1 $65 $134 $-1 $135 forward $16 $-1 #
edge $136 172 -1 $-1 $137 0 $104 0.002560851364669034 $65 $138 forward @7 unknown T 76.499046751633983 -7.4931303092441262 0 79.059898116303017 -7.4931303092441244 0 #
rgb_color-st-attrib $-1 -1 $-1 $-1 $66 2 1 2 1 1 1 1 1 1 1 1 1 1 1 0 1 1 1 1 0.98039215803146362 0.74900436401367188 #
vertex $-1 202 -1 $-1 $102 $139 #
straight-curve $-1 -1 -1 $-1 79.059898116303003 -7.4931303092441226 0 866.02540378443973 -499.99999999999829 0 F 1.4186921134868292e-017 F 0.0080137393815117846 #
point $-1 -1 -1 $-1 86 -11.5 0 #
edge $140 209 -1 $-1 $109 0 $113 0.0030999999999999986 $72 $141 forward @7 unknown T 47.699999999999996 65.100000000000009 0 50.799999999999997 65.100000000000009 0 #
rgb_color-st-attrib $-1 -1 $-1 $-1 $73 2 1 2 1 1 1 1 1 1 1 1 1 1 1 0 1 1 1 1 0.98039215803146362 0.74900436401367188 #
vertex $-1 215 -1 $-1 $107 $142 #
straight-curve $-1 -1 -1 $-1 50.799999999999997 51.100000000000001 0 0 1000 0 F 0 F 0.014000000000000005 #
point $-1 -1 -1 $-1 50.799999999999997 51.100000000000001 0 #
rgb_color-st-attrib $-1 -1 $-1 $-1 $77 2 1 2 1 1 1 1 1 1 1 1 1 1 1 0 1 1 1 1 0.98039215803146362 0.74900436401367188 #
vertex $-1 216 -1 $-1 $77 $143 #
straight-curve $-1 -1 -1 $-1 47.700000000000003 65.100000000000009 0 0 -1000 0 F 0 F 0.0023999999999999994 #
point $-1 -1 -1 $-1 47.700000000000003 62.700000000000003 0 #
coedge $-1 -1 -1 $-1 $144 $83 $-1 $145 forward $22 $-1 #
edge $146 223 -1 $-1 $119 4.7123889803846897 $147 6.2831853071795862 $83 $148 forward @7 unknown T 47.299999999999997 11.909898312227478 0 62.799999999999997 27.409898312227487 0 #
rgb_color-st-attrib $-1 -1 $-1 $-1 $84 2 1 2 1 1 1 1 1 1 1 1 1 1 1 0 1 1 1 1 0.98039215803146362 0.74900436401367188 #
vertex $-1 255 -1 $-1 $84 $149 #
straight-curve $-1 -1 -1 $-1 47.299999999999997 47.200000000000003 0 0 -1000 0 F 0 F 0.019790101687772527 #
point $-1 -1 -1 $-1 47.299999999999997 47.200000000000003 0 #
coedge $-1 -1 -1 $-1 $88 $150 $-1 $151 forward $22 $-1 #
edge $152 249 -1 $-1 $153 0 $125 0.0014499999999999999 $88 $154 forward @7 unknown T 51.849999999999994 60.200000000000003 0 53.299999999999997 60.200000000000003 0 #
rgb_color-st-attrib $-1 -1 $-1 $-1 $89 2 1 2 1 1 1 1 1 1 1 1 1 1 1 0 1 1 1 1 0.98039215803146362 0.74900436401367188 #
vertex $-1 282 -1 $-1 $89 $155 #
straight-curve $-1 -1 -1 $-1 51.850000000000001 60.200000000000003 0 0 -1000 0 F 0 F 0.009099999999999997 #
point $-1 -1 -1 $-1 51.850000000000001 51.100000000000009 0 #
coedge $-1 -1 -1 $-1 $156 $95 $-1 $157 forward $16 $-1 #
edge $158 150 -1 $-1 $131 1.3089969389957472 $159 1.7086773377024504 $95 $160 forward @7 unknown T 71.856710512576228 7.5990617133696539 0 77.800664379671275 8.1101743190336357 0 #
rgb_color-st-attrib $-1 -1 $-1 $-1 $96 2 1 2 1 1 1 1 1 1 1 1 1 1 1 0 1 1 1 1 0.98039215803146362 0.74900436401367188 #
vertex $-1 179 -1 $-1 $96 $161 #
straight-curve $-1 -1 -1 $-1 86 10.307179676972456 0 -965.92582628906837 -258.81904510252059 0 F 0 F 0.0084885768629142707 #
point $-1 -1 -1 $-1 86 10.307179676972456 0 #
coedge $-1 -1 -1 $-1 $101 $162 $-1 $163 forward $16 $-1 #
edge $164 171 -1 $-1 $165 3.1415926535897931 $137 4.7123889803846897 $101 $166 forward @7 unknown T 73.999046751633983 -9.9931303092441244 0 76.499046751633983 -7.4931303092441244 0 #
rgb_color-st-attrib $-1 -1 $-1 $-1 $102 2 1 2 1 1 1 1 1 1 1 1 1 1 1 0 1 1 1 1 0.98039215803146362 0.74900436401367188 #
vertex $-1 201 -1 $-1 $135 $167 #
straight-curve $-1 -1 -1 $-1 76.499046751633983 -7.4931303092441262 0 1000 0 0 F 0 F 0.002560851364669034 #
point $-1 -1 -1 $-1 79.059898116303017 -7.4931303092441262 0 #
rgb_color-st-attrib $-1 -1 $-1 $-1 $107 2 1 2 1 1 1 1 1 1 1 1 1 1 1 0 1 1 1 1 0.98039215803146362 0.74900436401367188 #
straight-curve $-1 -1 -1 $-1 50.799999999999997 65.100000000000009 0 -1000 0 0 F 0 F 0.0030999999999999986 #
point $-1 -1 -1 $-1 50.799999999999997 65.100000000000009 0 #
point $-1 -1 -1 $-1 47.700000000000003 65.100000000000009 0 #
coedge $-1 -1 -1 $-1 $168 $116 $-1 $169 forward $22 $-1 #
edge $170 224 -1 $-1 $147 5.5511151231257827e-017 $171 0.020391400779460056 $116 $172 forward @7 unknown T 62.799999999999997 11.909898312227401 0 83.191400779459997 11.909898312227478 0 #
rgb_color-st-attrib $-1 -1 $-1 $-1 $117 2 1 2 1 1 1 1 1 1 1 1 1 1 1 0 1 1 1 1 0.98039215803146362 0.74900436401367188 #
vertex $-1 256 -1 $-1 $145 $173 #
ellipse-curve $-1 -1 -1 $-1 62.799999999999997 27.40989831222748 0 0 0 1 -2.8473038080175961e-015 -15.5 0 1 F 4.7123889803846897 F 6.2831853071795862 #
point $-1 -1 -1 $-1 47.299999999999997 27.40989831222748 0 #
coedge $-1 -1 -1 $-1 $122 $174 $-1 $175 forward $22 $-1 #
edge $176 248 -1 $-1 $177 0 $153 0.009099999999999997 $122 $178 forward @7 unknown T 53.299999999999997 51.100000000000009 0 53.299999999999997 60.200000000000003 0 #
rgb_color-st-attrib $-1 -1 $-1 $-1 $123 2 1 2 1 1 1 1 1 1 1 1 1 1 1 0 1 1 1 1 0.98039215803146362 0.74900436401367188 #
vertex $-1 281 -1 $-1 $123 $179 #
straight-curve $-1 -1 -1 $-1 53.299999999999997 60.200000000000003 0 -1000 0 0 F 0 F 0.0014499999999999999 #
point $-1 -1 -1 $-1 51.850000000000001 60.200000000000003 0 #
coedge $-1 -1 -1 $-1 $180 $128 $-1 $181 forward $16 $-1 #
edge $182 151 -1 $-1 $159 1.3626866012125636e-017 $183 0.0127263816259839 $128 $184 forward @7 unknown T 59.251109079257063 7.7414197647950269 0 71.856710512576242 9.4905915100738767 0 #
rgb_color-st-attrib $-1 -1 $-1 $-1 $129 2 1 2 1 1 1 1 1 1 1 1 1 1 1 0 1 1 1 1 0.98039215803146362 0.74900436401367188 #
vertex $-1 180 -1 $-1 $129 $185 #
ellipse-curve $-1 -1 -1 $-1 73.918378703133456 22.599061713369657 0 0 0 -1 15.000000000000004 1.83697019872103e-015 0 1 F 1.3089969389957472 F 1.7086773377024504 #
point $-1 -1 -1 $-1 77.800664379671275 8.1101743190336357 0 #
coedge $-1 -1 -1 $-1 $134 $186 $-1 $187 forward $16 $-1 #
edge $188 170 -1 $-1 $189 0 $165 0.0025000000000000005 $134 $190 forward @7 unknown T 73.999046751633983 -12.493130309244124 0 73.999046751633983 -9.9931303092441244 0 #
rgb_color-st-attrib $-1 -1 $-1 $-1 $135 2 1 2 1 1 1 1 1 1 1 1 1 1 1 0 1 1 1 1 0.98039215803146362 0.74900436401367188 #
vertex $-1 200 -1 $-1 $163 $191 #
ellipse-curve $-1 -1 -1 $-1 76.499046751633983 -9.9931303092441244 0 0 0 -1 2.5 3.0616169978683831e-016 0 1 F 3.1415926535897931 F 4.7123889803846897 #
point $-1 -1 -1 $-1 76.499046751633983 -7.4931303092441244 0 #
coedge $-1 -1 -1 $-1 $192 $144 $-1 $193 forward $22 $-1 #
edge $194 225 -1 $-1 $171 0 $195 0.0019652006187124396 $144 $196 forward @7 unknown T 83.191400779459997 10.700000000000006 0 84.739999999999981 11.909898312227403 0 #
rgb_color-st-attrib $-1 -1 $-1 $-1 $145 2 1 2 1 1 1 1 1 1 1 1 1 1 1 0 1 1 1 1 0.98039215803146362 0.74900436401367188 #
vertex $-1 257 -1 $-1 $169 $197 #
straight-curve $-1 -1 -1 $-1 62.79999999999994 11.909898312227478 0 1000 -3.7325043694471368e-012 0 F 5.5511151231257827e-017 F 0.020391400779460056 #
point $-1 -1 -1 $-1 62.799999999999997 11.909898312227478 0 #
coedge $-1 -1 -1 $-1 $150 $198 $-1 $199 forward $22 $-1 #
edge $200 247 -1 $-1 $201 0 $177 0.0019000000000000059 $150 $202 forward @7 unknown T 53.299999999999997 51.100000000000009 0 55.200000000000003 51.100000000000009 0 #
rgb_color-st-attrib $-1 -1 $-1 $-1 $151 2 1 2 1 1 1 1 1 1 1 1 1 1 1 0 1 1 1 1 0.98039215803146362 0.74900436401367188 #
vertex $-1 280 -1 $-1 $151 $203 #
straight-curve $-1 -1 -1 $-1 53.299999999999997 51.100000000000009 0 0 1000 0 F 0 F 0.009099999999999997 #
point $-1 -1 -1 $-1 53.299999999999997 60.200000000000003 0 #
coedge $-1 -1 -1 $-1 $204 $156 $-1 $205 forward $16 $-1 #
edge $206 152 -1 $-1 $183 0.13788101090755248 $207 1.5707963267948966 $156 $208 forward @7 unknown T 41.999999999999993 9.490591510073866 0 59.251109079257063 29.300780774840042 0 #
rgb_color-st-attrib $-1 -1 $-1 $-1 $157 2 1 2 1 1 1 1 1 1 1 1 1 1 1 0 1 1 1 1 0.98039215803146362 0.74900436401367188 #
vertex $-1 181 -1 $-1 $157 $209 #
straight-curve $-1 -1 -1 $-1 71.856710512576257 7.7414197647950278 0 -990.50946323830874 137.44454603714729 0 F 1.3626866012125636e-017 F 0.0127263816259839 #
point $-1 -1 -1 $-1 71.856710512576242 7.7414197647950269 0 #
coedge $-1 -1 -1 $-1 $162 $210 $-1 $211 forward $16 $-1 #
edge $212 169 -1 $-1 $213 0 $189 0.0030000000000000027 $162 $214 forward @7 unknown T 70.999046751633983 -12.493130309244124 0 73.999046751633983 -12.493130309244124 0 #
rgb_color-st-attrib $-1 -1 $-1 $-1 $163 2 1 2 1 1 1 1 1 1 1 1 1 1 1 0 1 1 1 1 0.98039215803146362 0.74900436401367188 #
vertex $-1 199 -1 $-1 $187 $215 #
straight-curve $-1 -1 -1 $-1 73.999046751633983 -12.493130309244124 0 0 1000 0 F 0 F 0.0025000000000000005 #
point $-1 -1 -1 $-1 73.999046751633983 -9.9931303092441244 0 #
coedge $-1 -1 -1 $-1 $216 $168 $-1 $217 forward $22 $-1 #
edge $218 226 -1 $-1 $195 0 $219 0.0012000000000000066 $168 $220 forward @7 unknown T 84.739999999999981 10.700000000000006 0 85.939999999999984 10.700000000000006 0 #
rgb_color-st-attrib $-1 -1 $-1 $-1 $169 2 1 2 1 1 1 1 1 1 1 1 1 1 1 0 1 1 1 1 0.98039215803146362 0.74900436401367188 #
vertex $-1 258 -1 $-1 $193 $221 #
straight-curve $-1 -1 -1 $-1 83.191400779459997 11.909898312227403 0 788.01075360672257 -615.66147532565753 0 F 0 F 0.0019652006187124396 #
point $-1 -1 -1 $-1 83.191400779459997 11.909898312227403 0 #
coedge $-1 -1 -1 $-1 $174 $222 $-1 $223 forward $22 $-1 #
edge $224 246 -1 $-1 $225 0 $201 0.0037999999999999978 $174 $226 forward @7 unknown T 55.200000000000003 47.300000000000011 0 55.20000000000001 51.100000000000009 0 #
rgb_color-st-attrib $-1 -1 $-1 $-1 $175 2 1 2 1 1 1 1 1 1 1 1 1 1 1 0 1 1 1 1 0.98039215803146362 0.74900436401367188 #
vertex $-1 279 -1 $-1 $175 $227 #
straight-curve $-1 -1 -1 $-1 55.200000000000003 51.100000000000009 0 -1000 0 0 F 0 F 0.0019000000000000059 #
point $-1 -1 -1 $-1 53.299999999999997 51.100000000000009 0 #
coedge $-1 -1 -1 $-1 $228 $180 $-1 $229 forward $16 $-1 #
edge $230 153 -1 $-1 $207 0 $231 0.012513029495523697 $180 $232 forward @7 unknown T 41.999999999999993 29.300780774840042 0 42 41.813810270363739 0 #
rgb_color-st-attrib $-1 -1 $-1 $-1 $181 2 1 2 1 1 1 1 1 1 1 1 1 1 1 0 1 1 1 1 0.98039215803146362 0.74900436401367188 #
vertex $-1 182 -1 $-1 $181 $233 #
ellipse-curve $-1 -1 -1 $-1 62 29.300780774840046 0 0 0 -1 3.6739403974420608e-015 -20.000000000000007 0 1 F 0.13788101090755248 F 1.5707963267948966 #
point $-1 -1 -1 $-1 59.251109079257063 9.4905915100738767 0 #
coedge $-1 -1 -1 $-1 $186 $234 $-1 $235 forward $16 $-1 #
edge $236 168 -1 $-1 $237 1.7347234759768071e-018 $213 0.0017618425206889082 $186 $238 forward @7 unknown T 70.999046751633983 -12.493130309244126 0 70.999046751633983 -10.731287788555218 0 #
rgb_color-st-attrib $-1 -1 $-1 $-1 $187 2 1 2 1 1 1 1 1 1 1 1 1 1 1 0 1 1 1 1 0.98039215803146362 0.74900436401367188 #
vertex $-1 198 -1 $-1 $211 $239 #
straight-curve $-1 -1 -1 $-1 70.999046751633983 -12.493130309244124 0 1000 0 0 F 0 F 0.0030000000000000027 #
point $-1 -1 -1 $-1 73.999046751633983 -12.493130309244124 0 #
coedge $-1 -1 -1 $-1 $240 $192 $-1 $241 forward $22 $-1 #
edge $242 227 -1 $-1 $219 0 $243 0.0013000000000000008 $192 $244 forward @7 unknown T 85.939999999999984 10.700000000000006 0 85.939999999999998 12.000000000000007 0 #
rgb_color-st-attrib $-1 -1 $-1 $-1 $193 2 1 2 1 1 1 1 1 1 1 1 1 1 1 0 1 1 1 1 0.98039215803146362 0.74900436401367188 #
vertex $-1 259 -1 $-1 $217 $245 #
straight-curve $-1 -1 -1 $-1 84.739999999999981 10.700000000000006 0 1000 9.0350181040458202e-014 0 F 0 F 0.0012000000000000066 #
point $-1 -1 -1 $-1 84.739999999999981 10.700000000000006 0 #
coedge $-1 -1 -1 $-1 $198 $246 $-1 $247 forward $22 $-1 #
edge $248 245 -1 $-1 $249 0 $225 0.0026627004534478735 $198 $250 forward @7 unknown T 52.537299546552141 47.300000000000011 0 55.200000000000017 47.300000000000011 0 #
rgb_color-st-attrib $-1 -1 $-1 $-1 $199 2 1 2 1 1 1 1 1 1 1 1 1 1 1 0 1 1 1 1 0.98039215803146362 0.74900436401367188 #
vertex $-1 278 -1 $-1 $199 $251 #
straight-curve $-1 -1 -1 $-1 55.200000000000003 47.300000000000011 0 0 1000 0 F 0 F 0.0037999999999999978 #
point $-1 -1 -1 $-1 55.200000000000003 51.100000000000009 0 #
coedge $-1 -1 -1 $-1 $252 $204 $-1 $253 forward $16 $-1 #
edge $254 154 -1 $-1 $231 0 $255 0.0063784676901276951 $204 $256 forward @7 unknown T 42 41.813810270363739 0 46.100000000000001 46.70000000000001 0 #
rgb_color-st-attrib $-1 -1 $-1 $-1 $205 2 1 2 1 1 1 1 1 1 1 1 1 1 1 0 1 1 1 1 0.98039215803146362 0.74900436401367188 #
vertex $-1 183 -1 $-1 $205 $257 #
straight-curve $-1 -1 -1 $-1 41.999999999999993 29.300780774840042 0 5.5453348898358211e-013 1000 0 F 0 F 0.012513029495523697 #
point $-1 -1 -1 $-1 41.999999999999993 29.300780774840042 0 #
coedge $-1 -1 -1 $-1 $210 $258 $-1 $259 forward $16 $-1 #
edge $260 167 -1 $-1 $261 4.5745079694771382 $237 6.2831853071795862 $210 $262 forward @7 unknown T 68.155435386541114 -10.731287788555218 0 70.999046751633983 -8.2312877885552176 0 #
rgb_color-st-attrib $-1 -1 $-1 $-1 $211 2 1 2 1 1 1 1 1 1 1 1 1 1 1 0 1 1 1 1 0.98039215803146362 0.74900436401367188 #
vertex $-1 197 -1 $-1 $235 $263 #
straight-curve $-1 -1 -1 $-1 70.999046751633983 -10.731287788555218 0 0 -1000 0 F 1.7347234759768071e-018 F 0.0017618425206889082 #
point $-1 -1 -1 $-1 70.999046751633983 -12.493130309244124 0 #
coedge $-1 -1 -1 $-1 $264 $216 $-1 $265 forward $22 $-1 #
edge $266 228 -1 $-1 $243 -1.3877787807814457e-017 $267 0.0090599999999999847 $216 $268 forward @7 unknown T 85.939999999999998 11.999999999999917 0 95 12.000000000000007 0 #
rgb_color-st-attrib $-1 -1 $-1 $-1 $217 2 1 2 1 1 1 1 1 1 1 1 1 1 1 0 1 1 1 1 0.98039215803146362 0.74900436401367188 #
vertex $-1 260 -1 $-1 $241 $269 #
straight-curve $-1 -1 -1 $-1 85.939999999999984 10.700000000000006 0 1.0675221390626502e-011 1000 0 F 0 F 0.0013000000000000008 #
point $-1 -1 -1 $-1 85.939999999999984 10.700000000000006 0 #
coedge $-1 -1 -1 $-1 $222 $270 $-1 $271 forward $22 $-1 #
edge $272 244 -1 $-1 $273 0 $249 0.0012588190451025272 $222 $274 forward @7 unknown T 52.537299546552141 46.041180954897484 0 52.537299546552141 47.300000000000011 0 #
rgb_color-st-attrib $-1 -1 $-1 $-1 $223 2 1 2 1 1 1 1 1 1 1 1 1 1 1 0 1 1 1 1 0.98039215803146362 0.74900436401367188 #
vertex $-1 277 -1 $-1 $223 $275 #
straight-curve $-1 -1 -1 $-1 52.537299546552141 47.300000000000011 0 1000 0 0 F 0 F 0.0026627004534478735 #
point $-1 -1 -1 $-1 55.20000000000001 47.300000000000011 0 #
coedge $-1 -1 -1 $-1 $276 $228 $-1 $277 forward $16 $-1 #
edge $278 155 -1 $-1 $255 0 $279 0.023739999999999997 $228 $280 forward @7 unknown T 46.100000000000001 46.700000000000003 0 46.100000000000001 70.439999999999998 0 #
rgb_color-st-attrib $-1 -1 $-1 $-1 $229 2 1 2 1 1 1 1 1 1 1 1 1 1 1 0 1 1 1 1 0.98039215803146362 0.74900436401367188 #
vertex $-1 184 -1 $-1 $229 $281 #
straight-curve $-1 -1 -1 $-1 42 41.813810270363739 0 642.78760968653876 766.04444311897862 0 F 0 F 0.0063784676901276951 #
point $-1 -1 -1 $-1 42 41.813810270363739 0 #
coedge $-1 -1 -1 $-1 $234 $282 $-1 $283 forward $16 $-1 #
edge $284 166 -1 $-1 $285 -5.6808986729486534e-018 $261 0.0077085178739051971 $234 $286 forward @7 unknown T 60.520075484896367 -9.3145078702575752 0 68.155435386541114 -8.2550141304594433 0 #
rgb_color-st-attrib $-1 -1 $-1 $-1 $235 2 1 2 1 1 1 1 1 1 1 1 1 1 1 0 1 1 1 1 0.98039215803146362 0.74900436401367188 #
vertex $-1 196 -1 $-1 $259 $287 #
ellipse-curve $-1 -1 -1 $-1 68.499046751633983 -10.731287788555218 0 0 0 -1 2.5 3.0616169978683831e-016 0 1 F 4.5745079694771382 F 6.2831853071795862 #
point $-1 -1 -1 $-1 70.999046751633983 -10.731287788555218 0 #
coedge $-1 -1 -1 $-1 $288 $240 $-1 $289 forward $22 $-1 #
edge $290 229 -1 $-1 $267 -1.0408340855860843e-017 $291 0.00049999999999987034 $240 $292 forward @7 unknown T 95 11.500000000000036 0 95 11.999999999999917 0 #
rgb_color-st-attrib $-1 -1 $-1 $-1 $241 2 1 2 1 1 1 1 1 1 1 1 1 1 1 0 1 1 1 1 0.98039215803146362 0.74900436401367188 #
vertex $-1 261 -1 $-1 $265 $293 #
straight-curve $-1 -1 -1 $-1 85.940000000000012 12.000000000000007 0 1000 -9.9564702815446038e-012 0 F -1.3877787807814457e-017 F 0.0090599999999999847 #
point $-1 -1 -1 $-1 85.939999999999998 12.000000000000007 0 #
coedge $-1 -1 -1 $-1 $246 $294 $-1 $295 forward $22 $-1 #
edge $296 243 -1 $-1 $297 2.4773302041656049e-017 $273 0.021222110134880991 $246 $298 forward @7 unknown T 52.537299546552141 25.542196687264973 0 58.029985826722587 46.041180954897484 0 #
rgb_color-st-attrib $-1 -1 $-1 $-1 $247 2 1 2 1 1 1 1 1 1 1 1 1 1 1 0 1 1 1 1 0.98039215803146362 0.74900436401367188 #
vertex $-1 276 -1 $-1 $247 $299 #
straight-curve $-1 -1 -1 $-1 52.537299546552141 46.041180954897484 0 0 1000 0 F 0 F 0.0012588190451025272 #
point $-1 -1 -1 $-1 52.537299546552141 47.300000000000011 0 #
coedge $-1 -1 -1 $-1 $300 $252 $-1 $301 forward $16 $-1 #
edge $302 156 -1 $-1 $279 0 $303 0.0091000000000000039 $252 $304 forward @7 unknown T 37 70.439999999999998 0 46.100000000000001 70.439999999999998 0 #
rgb_color-st-attrib $-1 -1 $-1 $-1 $253 2 1 2 1 1 1 1 1 1 1 1 1 1 1 0 1 1 1 1 0.98039215803146362 0.74900436401367188 #
vertex $-1 185 -1 $-1 $253 $305 #
straight-curve $-1 -1 -1 $-1 46.100000000000001 46.700000000000003 0 0 1000 0 F 0 F 0.023739999999999997 #
point $-1 -1 -1 $-1 46.100000000000001 46.700000000000003 0 #
coedge $-1 -1 -1 $-1 $258 $306 $-1 $307 forward $16 $-1 #
edge $308 165 -1 $-1 $309 3.6651914291880918 $285 4.5745079694771373 $258 $310 forward @7 unknown T 45.948458329950533 -19.124697135023759 0 60.520075484896367 -9.3145078702575663 0 #
rgb_color-st-attrib $-1 -1 $-1 $-1 $259 2 1 2 1 1 1 1 1 1 1 1 1 1 1 0 1 1 1 1 0.98039215803146362 0.74900436401367188 #
vertex $-1 195 -1 $-1 $283 $311 #
straight-curve $-1 -1 -1 $-1 60.520075484896374 -9.3145078702575752 0 990.50946323830874 137.44454603714686 0 F -5.6808986729486534e-018 F 0.0077085178739051971 #
point $-1 -1 -1 $-1 68.155435386541114 -8.2550141304594433 0 #
coedge $-1 -1 -1 $-1 $312 $264 $-1 $313 forward $22 $-1 #
edge $314 230 -1 $-1 $291 0 $315 0.0042000000000000093 $264 $316 forward @7 unknown T 95 11.500000000000036 0 99.200000000000017 11.500000000000037 0 #
rgb_color-st-attrib $-1 -1 $-1 $-1 $265 2 1 2 1 1 1 1 1 1 1 1 1 1 1 0 1 1 1 1 0.98039215803146362 0.74900436401367188 #
vertex $-1 262 -1 $-1 $289 $317 #
straight-curve $-1 -1 -1 $-1 95 11.999999999999906 0 0 -1000 0 F -1.0408340855860843e-017 F 0.00049999999999987034 #
point $-1 -1 -1 $-1 95 11.999999999999917 0 #
coedge $-1 -1 -1 $-1 $270 $318 $-1 $319 forward $22 $-1 #
edge $320 242 -1 $-1 $321 0.10471975511965941 $297 1.3089969389957492 $270 $322 forward @7 unknown T 58.02998582672258 14.506653933278656 0 70.950946272043822 25.54219668726498 0 #
rgb_color-st-attrib $-1 -1 $-1 $-1 $271 2 1 2 1 1 1 1 1 1 1 1 1 1 1 0 1 1 1 1 0.98039215803146362 0.74900436401367188 #
vertex $-1 275 -1 $-1 $271 $323 #
straight-curve $-1 -1 -1 $-1 58.029985826722566 25.542196687264948 0 -258.81904510252065 965.92582628906837 0 F 2.4773302041656049e-017 F 0.021222110134880991 #
point $-1 -1 -1 $-1 52.537299546552141 46.041180954897484 0 #
coedge $-1 -1 -1 $-1 $324 $276 $-1 $325 forward $16 $-1 #
edge $326 157 -1 $-1 $303 0 $327 0.039440000000000003 $276 $328 forward @7 unknown T 37 30.999999999999993 0 37 70.439999999999998 0 #
rgb_color-st-attrib $-1 -1 $-1 $-1 $277 2 1 2 1 1 1 1 1 1 1 1 1 1 1 0 1 1 1 1 0.98039215803146362 0.74900436401367188 #
vertex $-1 186 -1 $-1 $277 $329 #
straight-curve $-1 -1 -1 $-1 46.100000000000001 70.439999999999998 0 -1000 0 0 F 0 F 0.0091000000000000039 #
point $-1 -1 -1 $-1 46.100000000000001 70.439999999999998 0 #
coedge $-1 -1 -1 $-1 $282 $330 $-1 $331 forward $16 $-1 #
edge $332 164 -1 $-1 $333 -6.4740761494279311e-018 $309 0.0079389159197084842 $282 $334 forward @7 unknown T 41.979000370096287 -26.000000000000011 0 45.94845832995054 -19.124697135023752 0 #
rgb_color-st-attrib $-1 -1 $-1 $-1 $283 2 1 2 1 1 1 1 1 1 1 1 1 1 1 0 1 1 1 1 0.98039215803146362 0.74900436401367188 #
vertex $-1 194 -1 $-1 $307 $335 #
ellipse-curve $-1 -1 -1 $-1 63.268966405639311 -29.124697135023748 0 0 0 -1 20.000000000000004 2.4492935982947069e-015 0 1 F 3.6651914291880918 F 4.5745079694771373 #
point $-1 -1 -1 $-1 60.520075484896367 -9.3145078702575663 0 #
coedge $-1 -1 -1 $-1 $336 $288 $-1 $337 forward $22 $-1 #
edge $338 231 -1 $-1 $315 1.7347234759768071e-018 $339 0.0010000000000000009 $288 $340 forward @7 unknown T 99.200000000000017 11.500000000000037 0 99.200000000000017 12.500000000000037 0 #
rgb_color-st-attrib $-1 -1 $-1 $-1 $289 2 1 2 1 1 1 1 1 1 1 1 1 1 1 0 1 1 1 1 0.98039215803146362 0.74900436401367188 #
vertex $-1 263 -1 $-1 $313 $341 #
straight-curve $-1 -1 -1 $-1 95 11.500000000000036 0 1000 1.5488602464078598e-013 0 F 0 F 0.0042000000000000093 #
point $-1 -1 -1 $-1 95 11.500000000000036 0 #
coedge $-1 -1 -1 $-1 $294 $342 $-1 $343 forward $22 $-1 #
edge $344 241 -1 $-1 $345 1.3983091813284526e-017 $321 0.0077073371381332825 $294 $346 forward @7 unknown T 70.950946272043808 13.701017826343874 0 78.616061810902409 14.506653933278656 0 #
rgb_color-st-attrib $-1 -1 $-1 $-1 $295 2 1 2 1 1 1 1 1 1 1 1 1 1 1 0 1 1 1 1 0.98039215803146362 0.74900436401367188 #
vertex $-1 274 -1 $-1 $295 $347 #
ellipse-curve $-1 -1 -1 $-1 72.518873221058612 29.424482363802763 0 0 0 -1 2.7554552980815444e-015 -14.999999999999998 0 1 F 0.10471975511965941 F 1.3089969389957492 #
point $-1 -1 -1 $-1 58.029985826722587 25.54219668726498 0 #
coedge $-1 -1 -1 $-1 $348 $300 $-1 $349 forward $16 $-1 #
edge $350 158 -1 $-1 $327 0 $351 0.015499999999999996 $300 $352 forward @7 unknown T 21.5 31 0 37 31.000000000000004 0 #
rgb_color-st-attrib $-1 -1 $-1 $-1 $301 2 1 2 1 1 1 1 1 1 1 1 1 1 1 0 1 1 1 1 0.98039215803146362 0.74900436401367188 #
vertex $-1 187 -1 $-1 $301 $353 #
straight-curve $-1 -1 -1 $-1 37 70.439999999999998 0 0 -1000 0 F 0 F 0.039440000000000003 #
point $-1 -1 -1 $-1 37 70.439999999999998 0 #
coedge $-1 -1 -1 $-1 $306 $354 $-1 $355 forward $16 $-1 #
edge $356 163 -1 $-1 $357 4.7123889803846897 $333 5.7595865315812862 $306 $358 forward @7 unknown T 38.514898754958537 -28 0 41.979000370096287 -26.000000000000004 0 #
rgb_color-st-attrib $-1 -1 $-1 $-1 $307 2 1 2 1 1 1 1 1 1 1 1 1 1 1 0 1 1 1 1 0.98039215803146362 0.74900436401367188 #
vertex $-1 193 -1 $-1 $331 $359 #
straight-curve $-1 -1 -1 $-1 41.979000370096294 -26.000000000000004 0 499.99999999999977 866.02540378443882 0 F -6.4740761494279311e-018 F 0.0079389159197084842 #
point $-1 -1 -1 $-1 45.94845832995054 -19.124697135023752 0 #
coedge $-1 -1 -1 $-1 $360 $312 $-1 $361 forward $22 $-1 #
edge $362 232 -1 $-1 $339 0 $363 0.0032000000000000084 $312 $364 forward @7 unknown T 96 12.500000000000036 0 99.200000000000017 12.500000000000037 0 #
rgb_color-st-attrib $-1 -1 $-1 $-1 $313 2 1 2 1 1 1 1 1 1 1 1 1 1 1 0 1 1 1 1 0.98039215803146362 0.74900436401367188 #
vertex $-1 264 -1 $-1 $337 $365 #
straight-curve $-1 -1 -1 $-1 99.200000000000017 11.500000000000036 0 0 1000 0 F 1.7347234759768071e-018 F 0.0010000000000000009 #
point $-1 -1 -1 $-1 99.200000000000017 11.500000000000037 0 #
coedge $-1 -1 -1 $-1 $318 $366 $-1 $367 forward $22 $-1 #
edge $368 240 -1 $-1 $369 2.7755575615628914e-017 $345 0.0027613211581691277 $318 $370 forward @7 unknown T 78.616061810902409 13.701017826343874 0 81.377382969071505 13.701017826343874 0 #
rgb_color-st-attrib $-1 -1 $-1 $-1 $319 2 1 2 1 1 1 1 1 1 1 1 1 1 1 0 1 1 1 1 0.98039215803146362 0.74900436401367188 #
vertex $-1 273 -1 $-1 $319 $371 #
straight-curve $-1 -1 -1 $-1 78.616061810902409 13.701017826343872 0 -994.52189536827336 104.52846326765308 0 F 1.3983091813284526e-017 F 0.0077073371381332825 #
point $-1 -1 -1 $-1 70.950946272043822 14.506653933278656 0 #
coedge $-1 -1 -1 $-1 $354 $324 $-1 $372 forward $16 $-1 #
edge $373 159 -1 $-1 $351 0 $374 0.1154 $324 $375 forward @7 unknown T 21.499999999999773 -84.400000000000006 0 21.5 31 0 #
rgb_color-st-attrib $-1 -1 $-1 $-1 $325 2 1 2 1 1 1 1 1 1 1 1 1 1 1 0 1 1 1 1 0.98039215803146362 0.74900436401367188 #
vertex $-1 188 -1 $-1 $349 $376 #
straight-curve $-1 -1 -1 $-1 37 31.000000000000004 0 -1000 0 0 F 0 F 0.015499999999999996 #
point $-1 -1 -1 $-1 37 31 0 #
coedge $-1 -1 -1 $-1 $330 $348 $-1 $377 forward $16 $-1 #
edge $378 162 -1 $-1 $379 0 $357 0.013264898754958537 $330 $380 forward @7 unknown T 25.25 -28 0 38.514898754958537 -27.999999999999996 0 #
rgb_color-st-attrib $-1 -1 $-1 $-1 $331 2 1 2 1 1 1 1 1 1 1 1 1 1 1 0 1 1 1 1 0.98039215803146362 0.74900436401367188 #
vertex $-1 192 -1 $-1 $355 $381 #
ellipse-curve $-1 -1 -1 $-1 38.514898754958537 -24 0 0 0 1 4 0 -0 1 F 4.7123889803846897 F 5.7595865315812862 #
point $-1 -1 -1 $-1 41.979000370096287 -26.000000000000007 0 #
coedge $-1 -1 -1 $-1 $382 $336 $-1 $383 forward $22 $-1 #
edge $384 233 -1 $-1 $363 0 $385 0.0034000000000000002 $336 $386 forward @7 unknown T 96 12.500000000000036 0 96 15.900000000000036 0 #
rgb_color-st-attrib $-1 -1 $-1 $-1 $337 2 1 2 1 1 1 1 1 1 1 1 1 1 1 0 1 1 1 1 0.98039215803146362 0.74900436401367188 #
vertex $-1 265 -1 $-1 $361 $387 #
straight-curve $-1 -1 -1 $-1 99.200000000000017 12.500000000000037 0 -1000 -2.710505431213754e-013 0 F 0 F 0.0032000000000000084 #
point $-1 -1 -1 $-1 99.200000000000017 12.500000000000037 0 #
coedge $-1 -1 -1 $-1 $342 $388 $-1 $389 forward $22 $-1 #
edge $390 239 -1 $-1 $391 0 $369 0.0055989821736561318 $342 $392 forward @7 unknown T 81.377382969071505 13.701017826343872 0 81.377382969071533 19.300000000000004 0 #
rgb_color-st-attrib $-1 -1 $-1 $-1 $343 2 1 2 1 1 1 1 1 1 1 1 1 1 1 0 1 1 1 1 0.98039215803146362 0.74900436401367188 #
vertex $-1 272 -1 $-1 $343 $393 #
straight-curve $-1 -1 -1 $-1 81.377382969071533 13.701017826343874 0 -1000 0 0 F 2.7755575615628914e-017 F 0.0027613211581691277 #
point $-1 -1 -1 $-1 78.616061810902409 13.701017826343874 0 #
edge $394 160 -1 $-1 $374 0 $395 0.0037500000000002288 $348 $396 forward @7 unknown T 21.499999999999773 -84.400000000000006 0 25.25 -84.400000000000006 0 #
rgb_color-st-attrib $-1 -1 $-1 $-1 $349 2 1 2 1 1 1 1 1 1 1 1 1 1 1 0 1 1 1 1 0.98039215803146362 0.74900436401367188 #
vertex $-1 189 -1 $-1 $349 $397 #
straight-curve $-1 -1 -1 $-1 21.5 31 0 -1.9842590886389822e-012 -1000 0 F 0 F 0.1154 #
point $-1 -1 -1 $-1 21.5 31 0 #
edge $398 161 -1 $-1 $395 0 $379 0.056400000000000006 $354 $399 forward @7 unknown T 25.25 -84.400000000000006 0 25.25 -27.999999999999996 0 #
rgb_color-st-attrib $-1 -1 $-1 $-1 $355 2 1 2 1 1 1 1 1 1 1 1 1 1 1 0 1 1 1 1 0.98039215803146362 0.74900436401367188 #
vertex $-1 191 -1 $-1 $377 $400 #
straight-curve $-1 -1 -1 $-1 25.25 -28 0 1000 0 0 F 0 F 0.013264898754958537 #
point $-1 -1 -1 $-1 38.514898754958537 -28 0 #
coedge $-1 -1 -1 $-1 $401 $360 $-1 $402 forward $22 $-1 #
edge $403 234 -1 $-1 $385 0 $404 0.0010000000000000009 $360 $405 forward @7 unknown T 95 15.900000000000032 0 96 15.900000000000036 0 #
rgb_color-st-attrib $-1 -1 $-1 $-1 $361 2 1 2 1 1 1 1 1 1 1 1 1 1 1 0 1 1 1 1 0.98039215803146362 0.74900436401367188 #
vertex $-1 266 -1 $-1 $383 $406 #
straight-curve $-1 -1 -1 $-1 96 12.500000000000036 0 0 1000 0 F 0 F 0.0034000000000000002 #
point $-1 -1 -1 $-1 96 12.500000000000036 0 #
coedge $-1 -1 -1 $-1 $366 $401 $-1 $407 forward $22 $-1 #
edge $408 238 -1 $-1 $409 0 $391 0.0016226170309284749 $366 $410 forward @7 unknown T 81.377382969071519 19.300000000000004 0 83 19.300000000000004 0 #
rgb_color-st-attrib $-1 -1 $-1 $-1 $367 2 1 2 1 1 1 1 1 1 1 1 1 1 1 0 1 1 1 1 0.98039215803146362 0.74900436401367188 #
vertex $-1 271 -1 $-1 $367 $411 #
straight-curve $-1 -1 -1 $-1 81.377382969071533 19.300000000000004 0 -4.9572537927022066e-012 -1000 0 F 0 F 0.0055989821736561318 #
point $-1 -1 -1 $-1 81.377382969071505 13.701017826343874 0 #
rgb_color-st-attrib $-1 -1 $-1 $-1 $372 2 1 2 1 1 1 1 1 1 1 1 1 1 1 0 1 1 1 1 0.98039215803146362 0.74900436401367188 #
vertex $-1 190 -1 $-1 $372 $412 #
straight-curve $-1 -1 -1 $-1 21.499999999999773 -84.400000000000006 0 1000 0 0 F 0 F 0.0037500000000002288 #
point $-1 -1 -1 $-1 21.499999999999773 -84.400000000000006 0 #
rgb_color-st-attrib $-1 -1 $-1 $-1 $377 2 1 2 1 1 1 1 1 1 1 1 1 1 1 0 1 1 1 1 0.98039215803146362 0.74900436401367188 #
straight-curve $-1 -1 -1 $-1 25.25 -84.400000000000006 0 0 1000 0 F 0 F 0.056400000000000006 #
point $-1 -1 -1 $-1 25.25 -27.999999999999996 0 #
coedge $-1 -1 -1 $-1 $388 $382 $-1 $413 forward $22 $-1 #
edge $414 235 -1 $-1 $404 0 $415 0.0030000000000000235 $382 $416 forward @7 unknown T 95 12.900000000000009 0 95 15.900000000000032 0 #
rgb_color-st-attrib $-1 -1 $-1 $-1 $383 2 1 2 1 1 1 1 1 1 1 1 1 1 1 0 1 1 1 1 0.98039215803146362 0.74900436401367188 #
vertex $-1 267 -1 $-1 $402 $417 #
straight-curve $-1 -1 -1 $-1 96 15.900000000000036 0 -1000 -8.6736173798840274e-013 0 F 0 F 0.0010000000000000009 #
point $-1 -1 -1 $-1 96 15.900000000000036 0 #
edge $418 237 -1 $-1 $419 0 $409 0.0063999999999999977 $388 $420 forward @7 unknown T 83 12.900000000000007 0 83 19.300000000000004 0 #
rgb_color-st-attrib $-1 -1 $-1 $-1 $389 2 1 2 1 1 1 1 1 1 1 1 1 1 1 0 1 1 1 1 0.98039215803146362 0.74900436401367188 #
vertex $-1 270 -1 $-1 $389 $421 #
straight-curve $-1 -1 -1 $-1 83 19.300000000000004 0 -1000 0 0 F 0 F 0.0016226170309284749 #
point $-1 -1 -1 $-1 81.377382969071533 19.300000000000004 0 #
point $-1 -1 -1 $-1 25.25 -84.400000000000006 0 #
edge $422 236 -1 $-1 $415 -1.8807909613156604e-034 $419 0.011999999999999997 $401 $423 forward @7 unknown T 83 12.900000000000006 0 95 12.900000000000009 0 #
rgb_color-st-attrib $-1 -1 $-1 $-1 $402 2 1 2 1 1 1 1 1 1 1 1 1 1 1 0 1 1 1 1 0.98039215803146362 0.74900436401367188 #
vertex $-1 268 -1 $-1 $413 $424 #
straight-curve $-1 -1 -1 $-1 95 15.900000000000032 0 0 -1000 0 F 0 F 0.0030000000000000235 #
point $-1 -1 -1 $-1 95 15.900000000000032 0 #
rgb_color-st-attrib $-1 -1 $-1 $-1 $407 2 1 2 1 1 1 1 1 1 1 1 1 1 1 0 1 1 1 1 0.98039215803146362 0.74900436401367188 #
vertex $-1 269 -1 $-1 $407 $425 #
straight-curve $-1 -1 -1 $-1 83 12.900000000000007 0 0 1000 0 F 0 F 0.0063999999999999977 #
point $-1 -1 -1 $-1 83 19.300000000000004 0 #
rgb_color-st-attrib $-1 -1 $-1 $-1 $413 2 1 2 1 1 1 1 1 1 1 1 1 1 1 0 1 1 1 1 0.98039215803146362 0.74900436401367188 #
straight-curve $-1 -1 -1 $-1 95 12.900000000000007 0 -1000 -1.0842021724855047e-013 0 F -1.8807909613156604e-034 F 0.011999999999999997 #
point $-1 -1 -1 $-1 95 12.900000000000009 0 #
point $-1 -1 -1 $-1 83 12.900000000000007 0 #
End-of-ACIS-data 